<svg width="81" height="96" viewBox="0 0 81 96" fill="none" xmlns="http://www.w3.org/2000/svg">
<path d="M44.625 29.625V22.125H36.375V29.625H44.625ZM44.625 4V11.625H36.375V4H44.625ZM54.5 22.125V29.625H46.25V22.125H54.5ZM34.875 13.125V20.625H26.625V13.125H34.875ZM44.625 13.125V20.625H36.375V13.125H44.625ZM79.25 25.625L81 26.75C80.75 27.25 80.125 28.625 79.875 28.875C76.875 34.5 71.125 34.625 68.5 34.5C61.625 51 47.125 60.125 27.375 60.125C18.375 60.125 11.375 57.25 6.75 51.75C2 46.125 0.125 37.875 1.25 31.5H55.625C58.375 31.625 60.5 30.75 61.625 30.25C59.125 26.375 59.75 20.75 62.125 17.25L63.25 15.5L65 16.625C68 19 69.75 21.625 70.125 24.625C73.375 24 77.5 24.375 79.25 25.625ZM15.375 22.125V29.625H7.125V22.125H15.375ZM25.125 22.125V29.625H16.875V22.125H25.125ZM34.875 22.125V29.625H26.625V22.125H34.875ZM25.125 13.125V20.625H16.875V13.125H25.125Z" fill="#09EAB4"/>
<path d="M13.342 91H8.63317V76.4545H13.4911C14.9163 76.4545 16.1403 76.7457 17.163 77.3281C18.1857 77.9058 18.9693 78.7367 19.5138 79.821C20.0631 80.9006 20.3377 82.1955 20.3377 83.706C20.3377 85.2211 20.0607 86.5232 19.5067 87.6122C18.9575 88.7012 18.1621 89.5393 17.1204 90.1264C16.0787 90.7088 14.8192 91 13.342 91ZM10.8278 89.0824H13.2212C14.3292 89.0824 15.2501 88.8741 15.984 88.4574C16.7179 88.036 17.2672 87.4276 17.6317 86.6321C17.9963 85.8319 18.1786 84.8565 18.1786 83.706C18.1786 82.5649 17.9963 81.5966 17.6317 80.8011C17.2719 80.0057 16.7345 79.402 16.0195 78.9901C15.3046 78.5781 14.4168 78.3722 13.3562 78.3722H10.8278V89.0824ZM27.4915 91.2202C26.4688 91.2202 25.5762 90.9858 24.8139 90.517C24.0516 90.0483 23.4598 89.3925 23.0384 88.5497C22.617 87.7069 22.4062 86.7221 22.4062 85.5952C22.4062 84.4635 22.617 83.474 23.0384 82.6264C23.4598 81.7789 24.0516 81.1207 24.8139 80.652C25.5762 80.1832 26.4688 79.9489 27.4915 79.9489C28.5142 79.9489 29.4067 80.1832 30.169 80.652C30.9313 81.1207 31.5232 81.7789 31.9446 82.6264C32.366 83.474 32.5767 84.4635 32.5767 85.5952C32.5767 86.7221 32.366 87.7069 31.9446 88.5497C31.5232 89.3925 30.9313 90.0483 30.169 90.517C29.4067 90.9858 28.5142 91.2202 27.4915 91.2202ZM27.4986 89.4375C28.1615 89.4375 28.7107 89.2623 29.1463 88.9119C29.5819 88.5616 29.9039 88.0952 30.1122 87.5128C30.3253 86.9304 30.4318 86.2888 30.4318 85.5881C30.4318 84.892 30.3253 84.2528 30.1122 83.6705C29.9039 83.0833 29.5819 82.6122 29.1463 82.2571C28.7107 81.902 28.1615 81.7244 27.4986 81.7244C26.831 81.7244 26.277 81.902 25.8366 82.2571C25.401 82.6122 25.0767 83.0833 24.8636 83.6705C24.6553 84.2528 24.5511 84.892 24.5511 85.5881C24.5511 86.2888 24.6553 86.9304 24.8636 87.5128C25.0767 88.0952 25.401 88.5616 25.8366 88.9119C26.277 89.2623 26.831 89.4375 27.4986 89.4375ZM39.5423 91.2202C38.4864 91.2202 37.5773 90.9811 36.815 90.5028C36.0574 90.0199 35.475 89.3546 35.0678 88.5071C34.6606 87.6596 34.457 86.6889 34.457 85.5952C34.457 84.4872 34.6654 83.5095 35.082 82.6619C35.4987 81.8097 36.0858 81.1444 36.8434 80.6662C37.601 80.188 38.4935 79.9489 39.521 79.9489C40.3496 79.9489 41.0882 80.1027 41.7369 80.4105C42.3855 80.7135 42.9087 81.1397 43.3065 81.6889C43.7089 82.2382 43.948 82.8797 44.0238 83.6136H41.957C41.8434 83.1023 41.583 82.6619 41.1758 82.2926C40.7733 81.9233 40.2335 81.7386 39.5565 81.7386C38.9646 81.7386 38.4461 81.8949 38.0011 82.2074C37.5607 82.5152 37.2174 82.9555 36.9712 83.5284C36.725 84.0966 36.6019 84.7689 36.6019 85.5455C36.6019 86.3409 36.7227 87.0275 36.9641 87.6051C37.2056 88.1828 37.5465 88.6302 37.9869 88.9474C38.4319 89.2647 38.9551 89.4233 39.5565 89.4233C39.9589 89.4233 40.3235 89.3499 40.6502 89.2031C40.9817 89.0516 41.2586 88.8362 41.4812 88.5568C41.7085 88.2775 41.8671 87.9413 41.957 87.5483H44.0238C43.948 88.2538 43.7184 88.8835 43.3349 89.4375C42.9513 89.9915 42.4376 90.4271 41.7937 90.7443C41.1545 91.0616 40.404 91.2202 39.5423 91.2202ZM48.2479 87.2997L48.2337 84.7074H48.603L52.9496 80.0909H55.4922L50.5348 85.3466H50.201L48.2479 87.2997ZM46.2947 91V76.4545H48.4183V91H46.2947ZM53.1839 91L49.2777 85.8153L50.7408 84.331L55.7905 91H53.1839ZM61.68 91.2202C60.6052 91.2202 59.6796 90.9905 58.9031 90.5312C58.1313 90.0672 57.5347 89.4162 57.1133 88.5781C56.6966 87.7353 56.4883 86.7481 56.4883 85.6165C56.4883 84.4991 56.6966 83.5142 57.1133 82.6619C57.5347 81.8097 58.1218 81.1444 58.8746 80.6662C59.6322 80.188 60.5176 79.9489 61.5309 79.9489C62.1464 79.9489 62.743 80.0507 63.3207 80.2543C63.8983 80.4579 64.4168 80.7775 64.8761 81.2131C65.3353 81.6487 65.6976 82.2145 65.9627 82.9105C66.2279 83.6018 66.3604 84.4422 66.3604 85.4318V86.1847H57.6886V84.5938H64.2795C64.2795 84.035 64.1658 83.5402 63.9386 83.1094C63.7113 82.6738 63.3917 82.3305 62.9798 82.0795C62.5726 81.8286 62.0943 81.7031 61.5451 81.7031C60.9485 81.7031 60.4277 81.8499 59.9826 82.1435C59.5423 82.4323 59.2013 82.8111 58.9599 83.2798C58.7231 83.7438 58.6048 84.2481 58.6048 84.7926V86.0355C58.6048 86.7647 58.7326 87.3849 58.9883 87.8963C59.2487 88.4077 59.6109 88.7983 60.0749 89.0682C60.5389 89.3333 61.0811 89.4659 61.7013 89.4659C62.1038 89.4659 62.4708 89.4091 62.8022 89.2955C63.1336 89.1771 63.4201 89.0019 63.6616 88.7699C63.9031 88.5379 64.0877 88.2514 64.2156 87.9105L66.2255 88.2727C66.0645 88.8646 65.7757 89.383 65.359 89.8281C64.9471 90.2685 64.4286 90.6117 63.8036 90.858C63.1834 91.0994 62.4755 91.2202 61.68 91.2202ZM68.7166 91V80.0909H70.7692V81.8239H70.8828C71.0817 81.2367 71.4321 80.7751 71.9339 80.4389C72.4406 80.098 73.0135 79.9276 73.6527 79.9276C73.7853 79.9276 73.9415 79.9323 74.1214 79.9418C74.3061 79.9512 74.4505 79.9631 74.5547 79.9773V82.0085C74.4695 81.9848 74.3179 81.9588 74.1001 81.9304C73.8823 81.8973 73.6645 81.8807 73.4467 81.8807C72.9448 81.8807 72.4974 81.9872 72.1044 82.2003C71.7161 82.4086 71.4084 82.6998 71.1811 83.0739C70.9538 83.4432 70.8402 83.8646 70.8402 84.3381V91H68.7166Z" fill="#09EAB4"/>
</svg>
