<svg width="59" height="96" viewBox="0 0 59 96" fill="none" xmlns="http://www.w3.org/2000/svg">
<path d="M7.25 12C7.25 5.375 12.5 0 19.125 0H39.75C46.375 0 51.625 5.375 51.625 12C51.625 16.25 49.5 19.875 46.25 22C49.5 24.25 51.625 27.875 51.625 32.125C51.625 38.625 46.375 44 39.75 44H39.5C36.375 44 33.5 42.875 31.375 40.875V52C31.375 58.625 25.875 64 19.25 64C12.625 64 7.25 58.75 7.25 52.125C7.25 47.875 9.375 44.25 12.625 42.125C9.375 39.875 7.25 36.25 7.25 32.125C7.25 27.875 9.375 24.25 12.625 22C9.375 19.875 7.25 16.25 7.25 12ZM27.5 24H19.125C14.75 24 11.125 27.625 11.125 32.125C11.125 36.5 14.625 40.125 19.125 40.125H27.5V24ZM31.375 32.125C31.375 36.5 35 40.125 39.5 40.125H39.75C44.125 40.125 47.75 36.5 47.75 32.125C47.75 27.625 44.125 24 39.75 24H39.5C35 24 31.375 27.625 31.375 32.125ZM19.125 44C14.625 44.125 11.125 47.625 11.125 52.125C11.125 56.5 14.75 60.125 19.25 60.125C23.75 60.125 27.5 56.5 27.5 52V44H19.125ZM19.125 4C14.75 4 11.125 7.625 11.125 12C11.125 16.5 14.75 20.125 19.125 20.125H27.5V4H19.125ZM31.375 20.125H39.75C44.125 20.125 47.75 16.5 47.75 12C47.75 7.625 44.125 4 39.75 4H31.375V20.125Z" fill="#09EAB4"/>
<path d="M2.04528 91V76.4545H11.0652V78.3438H4.23988V82.7756H10.4189V84.6577H4.23988V91H2.04528ZM13.5936 91V80.0909H15.7172V91H13.5936ZM14.666 78.4077C14.2967 78.4077 13.9795 78.2846 13.7143 78.0384C13.4539 77.7874 13.3237 77.4891 13.3237 77.1435C13.3237 76.7931 13.4539 76.4948 13.7143 76.2486C13.9795 75.9976 14.2967 75.8722 14.666 75.8722C15.0353 75.8722 15.3502 75.9976 15.6106 76.2486C15.8758 76.4948 16.0083 76.7931 16.0083 77.1435C16.0083 77.4891 15.8758 77.7874 15.6106 78.0384C15.3502 78.2846 15.0353 78.4077 14.666 78.4077ZM23.1479 95.3182C22.2814 95.3182 21.5357 95.2045 20.9107 94.9773C20.2904 94.75 19.7838 94.4493 19.3908 94.0753C18.9978 93.7012 18.7042 93.2917 18.5101 92.8466L20.3354 92.0938C20.4632 92.3021 20.6337 92.5223 20.8468 92.7543C21.0646 92.991 21.3581 93.1922 21.7275 93.358C22.1015 93.5237 22.5821 93.6065 23.1692 93.6065C23.9741 93.6065 24.6394 93.41 25.165 93.017C25.6905 92.6288 25.9533 92.0085 25.9533 91.1562V89.0114H25.8184C25.6905 89.2434 25.5059 89.5014 25.2644 89.7855C25.0276 90.0696 24.7009 90.3158 24.2843 90.5241C23.8676 90.7325 23.3255 90.8366 22.6578 90.8366C21.7961 90.8366 21.0196 90.6354 20.3283 90.233C19.6417 89.8258 19.0972 89.2268 18.6948 88.4361C18.2971 87.6406 18.0982 86.6629 18.0982 85.5028C18.0982 84.3428 18.2947 83.3485 18.6877 82.5199C19.0854 81.6913 19.6299 81.0568 20.3212 80.6165C21.0125 80.1714 21.7961 79.9489 22.6721 79.9489C23.3491 79.9489 23.896 80.0625 24.3127 80.2898C24.7293 80.5123 25.0537 80.7727 25.2857 81.071C25.5224 81.3693 25.7047 81.6321 25.8326 81.8594H25.9888V80.0909H28.0698V91.2415C28.0698 92.179 27.852 92.9484 27.4164 93.5497C26.9808 94.151 26.3913 94.5961 25.6479 94.8849C24.9093 95.1738 24.0759 95.3182 23.1479 95.3182ZM23.1266 89.0753C23.7374 89.0753 24.2535 88.9332 24.6749 88.6491C25.101 88.3603 25.423 87.9484 25.6408 87.4134C25.8633 86.8736 25.9746 86.2273 25.9746 85.4744C25.9746 84.7405 25.8657 84.0942 25.6479 83.5355C25.4301 82.9768 25.1105 82.5412 24.6891 82.2287C24.2677 81.9115 23.7469 81.7528 23.1266 81.7528C22.4874 81.7528 21.9547 81.9186 21.5286 82.25C21.1025 82.5767 20.7805 83.0218 20.5627 83.5852C20.3496 84.1487 20.2431 84.7784 20.2431 85.4744C20.2431 86.1894 20.352 86.8168 20.5698 87.3565C20.7876 87.8963 21.1096 88.3177 21.5357 88.6207C21.9666 88.9238 22.4969 89.0753 23.1266 89.0753ZM30.9178 91V80.0909H32.9561V81.8665H33.0911C33.3184 81.2652 33.69 80.7964 34.2061 80.4602C34.7222 80.1193 35.3401 79.9489 36.0598 79.9489C36.789 79.9489 37.3998 80.1193 37.8922 80.4602C38.3894 80.8011 38.7563 81.2699 38.9931 81.8665H39.1067C39.3671 81.2841 39.7814 80.8201 40.3496 80.4744C40.9178 80.1241 41.5949 79.9489 42.3809 79.9489C43.3704 79.9489 44.1777 80.259 44.8027 80.8793C45.4325 81.4995 45.7473 82.4347 45.7473 83.6847V91H43.6238V83.8835C43.6238 83.1449 43.4225 82.6098 43.0201 82.2784C42.6176 81.947 42.137 81.7812 41.5783 81.7812C40.887 81.7812 40.3496 81.9943 39.9661 82.4205C39.5826 82.8419 39.3908 83.384 39.3908 84.0469V91H37.2743V83.7486C37.2743 83.1567 37.0897 82.6809 36.7203 82.321C36.351 81.9612 35.8704 81.7812 35.2786 81.7812C34.8761 81.7812 34.5044 81.8878 34.1635 82.1009C33.8274 82.3092 33.5551 82.6004 33.3468 82.9744C33.1432 83.3485 33.0414 83.7817 33.0414 84.2741V91H30.9178ZM51.7683 91.2415C51.077 91.2415 50.452 91.1136 49.8933 90.858C49.3346 90.5975 48.8919 90.2211 48.5652 89.7287C48.2432 89.2363 48.0822 88.6326 48.0822 87.9176C48.0822 87.3021 48.2006 86.7955 48.4373 86.3977C48.6741 86 48.9937 85.6851 49.3961 85.4531C49.7986 85.2211 50.2484 85.0459 50.7456 84.9276C51.2427 84.8092 51.7493 84.7192 52.2654 84.6577C52.9189 84.5819 53.4492 84.5204 53.8564 84.473C54.2636 84.4209 54.5595 84.3381 54.7441 84.2244C54.9288 84.1108 55.0211 83.9261 55.0211 83.6705V83.6207C55.0211 83.0005 54.8459 82.5199 54.4956 82.179C54.1499 81.8381 53.6338 81.6676 52.9473 81.6676C52.2323 81.6676 51.6689 81.8262 51.2569 82.1435C50.8497 82.456 50.568 82.804 50.4118 83.1875L48.416 82.733C48.6528 82.0701 48.9984 81.535 49.4529 81.1278C49.9122 80.7159 50.4402 80.4176 51.0368 80.233C51.6333 80.0436 52.2607 79.9489 52.9189 79.9489C53.3545 79.9489 53.8161 80.0009 54.3038 80.1051C54.7962 80.2045 55.2555 80.3892 55.6816 80.6591C56.1125 80.929 56.4653 81.3149 56.7399 81.8168C57.0145 82.3139 57.1518 82.9602 57.1518 83.7557V91H55.0779V89.5085H54.9927C54.8554 89.7831 54.6494 90.053 54.3748 90.3182C54.1002 90.5833 53.7475 90.8035 53.3166 90.9787C52.8857 91.1539 52.3696 91.2415 51.7683 91.2415ZM52.2299 89.5369C52.8171 89.5369 53.319 89.4209 53.7356 89.1889C54.157 88.9569 54.4766 88.6539 54.6944 88.2798C54.917 87.901 55.0282 87.4962 55.0282 87.0653V85.6591C54.9525 85.7348 54.8057 85.8059 54.5879 85.8722C54.3748 85.9337 54.131 85.9882 53.8564 86.0355C53.5817 86.0781 53.3142 86.1184 53.0538 86.1562C52.7934 86.1894 52.5756 86.2178 52.4004 86.2415C51.9885 86.2936 51.612 86.3812 51.2711 86.5043C50.935 86.6274 50.6651 86.8049 50.4615 87.0369C50.2626 87.2642 50.1632 87.5672 50.1632 87.946C50.1632 88.4716 50.3573 88.8693 50.7456 89.1392C51.1338 89.4044 51.6286 89.5369 52.2299 89.5369Z" fill="#09EAB4"/>
</svg>
