<svg width="68" height="96" viewBox="0 0 68 96" fill="none" xmlns="http://www.w3.org/2000/svg">
<path d="M23.625 49.75C23.625 49.5 23.375 49.25 23 49.25C22.625 49.25 22.375 49.5 22.375 49.75C22.375 50 22.625 50.25 23 50.125C23.375 50.125 23.625 50 23.625 49.75ZM19.75 49.125C19.875 48.875 20.25 48.75 20.625 48.875C21 49 21.125 49.25 21.125 49.5C21 49.75 20.625 49.875 20.375 49.75C20 49.75 19.75 49.375 19.75 49.125ZM25.375 49C25.625 48.875 26 49.125 26 49.375C26.125 49.625 25.875 49.75 25.5 49.875C25.125 50 24.75 49.875 24.75 49.625C24.75 49.25 25 49 25.375 49ZM33.5 1C50.875 1 65 14.25 65 31.5C65 45.375 56.5 57.25 44 61.375C42.375 61.75 41.75 60.75 41.75 59.875C41.75 58.875 41.875 53.625 41.875 49.5C41.875 46.5 40.875 44.625 39.75 43.625C46.75 42.875 54.125 41.875 54.125 29.875C54.125 26.375 52.875 24.75 50.875 22.5C51.125 21.625 52.25 18.375 50.5 14C47.875 13.125 41.875 17.375 41.875 17.375C39.375 16.625 36.75 16.375 34 16.375C31.375 16.375 28.75 16.625 26.25 17.375C26.25 17.375 20.125 13.25 17.625 14C15.875 18.375 16.875 21.625 17.25 22.5C15.25 24.75 14.25 26.375 14.25 29.875C14.25 41.875 21.375 42.875 28.375 43.625C27.375 44.5 26.625 45.875 26.375 47.875C24.5 48.75 20 50.125 17.25 45.25C15.5 42.25 12.375 42 12.375 42C9.375 42 12.25 44 12.25 44C14.25 44.875 15.625 48.5 15.625 48.5C17.5 54.125 26.25 52.25 26.25 52.25C26.25 54.875 26.25 59.125 26.25 60C26.25 60.75 25.75 61.75 24.125 61.5C11.625 57.25 3 45.375 3 31.5C3 14.25 16.25 1 33.5 1ZM15.125 44.125C15.25 44 15.5 44.125 15.75 44.25C16 44.5 16 44.875 15.875 45C15.625 45.125 15.375 45 15.125 44.875C15 44.625 14.875 44.25 15.125 44.125ZM13.75 43.125C13.875 43 14 43 14.25 43.125C14.5 43.25 14.625 43.375 14.625 43.5C14.5 43.75 14.25 43.75 14 43.625C13.75 43.5 13.625 43.375 13.75 43.125ZM17.75 47.625C18 47.375 18.375 47.5 18.625 47.75C18.875 48 18.875 48.375 18.75 48.5C18.625 48.75 18.25 48.625 18 48.375C17.625 48.125 17.625 47.75 17.75 47.625ZM16.375 45.75C16.625 45.625 16.875 45.75 17.125 46C17.25 46.25 17.25 46.625 17.125 46.75C16.875 46.875 16.625 46.75 16.375 46.5C16.125 46.25 16.125 45.875 16.375 45.75Z" fill="#09EAB4"/>
<path d="M11.6527 81.0497C11.5154 80.6188 11.3307 80.233 11.0987 79.892C10.8714 79.5464 10.5992 79.2528 10.282 79.0114C9.96473 78.7652 9.60251 78.5781 9.19531 78.4503C8.79285 78.3224 8.35014 78.2585 7.86719 78.2585C7.04806 78.2585 6.30942 78.4692 5.65128 78.8906C4.99313 79.312 4.4723 79.9299 4.08878 80.7443C3.70999 81.554 3.5206 82.5459 3.5206 83.7202C3.5206 84.8991 3.71236 85.8958 4.09588 86.7102C4.4794 87.5246 5.00497 88.1425 5.67259 88.5639C6.3402 88.9853 7.10014 89.196 7.95241 89.196C8.74313 89.196 9.43205 89.035 10.0192 88.7131C10.611 88.3911 11.0679 87.9366 11.3899 87.3494C11.7166 86.7576 11.88 86.0616 11.88 85.2614L12.4482 85.3679H8.28622V83.5568H14.0036V85.2116C14.0036 86.4332 13.7431 87.4938 13.2223 88.3935C12.7062 89.2884 11.9912 89.9796 11.0774 90.4673C10.1683 90.955 9.12666 91.1989 7.95241 91.1989C6.63613 91.1989 5.48082 90.8958 4.48651 90.2898C3.49692 89.6837 2.72514 88.8243 2.17116 87.7116C1.61719 86.5942 1.3402 85.2685 1.3402 83.7344C1.3402 82.5743 1.50118 81.5327 1.82315 80.6094C2.14512 79.6861 2.5973 78.9025 3.17969 78.2585C3.76681 77.6098 4.45573 77.1151 5.24645 76.7741C6.0419 76.4285 6.91075 76.2557 7.85298 76.2557C8.63897 76.2557 9.3705 76.3717 10.0476 76.6037C10.7294 76.8357 11.3355 77.1648 11.8658 77.5909C12.4008 78.017 12.8435 78.5237 13.1939 79.1108C13.5443 79.6932 13.781 80.3395 13.9041 81.0497H11.6527ZM17.3026 91V80.0909H19.4261V91H17.3026ZM18.375 78.4077C18.0057 78.4077 17.6884 78.2846 17.4233 78.0384C17.1629 77.7874 17.0327 77.4891 17.0327 77.1435C17.0327 76.7931 17.1629 76.4948 17.4233 76.2486C17.6884 75.9976 18.0057 75.8722 18.375 75.8722C18.7443 75.8722 19.0592 75.9976 19.3196 76.2486C19.5848 76.4948 19.7173 76.7931 19.7173 77.1435C19.7173 77.4891 19.5848 77.7874 19.3196 78.0384C19.0592 78.2846 18.7443 78.4077 18.375 78.4077ZM27.3754 80.0909V81.7955H21.4165V80.0909H27.3754ZM23.0146 77.4773H25.1381V87.7969C25.1381 88.2088 25.1997 88.5189 25.3228 88.7273C25.4459 88.9309 25.6045 89.0705 25.7987 89.1463C25.9975 89.2173 26.2129 89.2528 26.445 89.2528C26.6154 89.2528 26.7646 89.241 26.8924 89.2173C27.0202 89.1937 27.1197 89.1747 27.1907 89.1605L27.5742 90.9148C27.4511 90.9621 27.2759 91.0095 27.0487 91.0568C26.8214 91.1089 26.5373 91.1373 26.1964 91.142C25.6377 91.1515 25.1168 91.0521 24.6339 90.8438C24.1509 90.6354 23.7603 90.3134 23.462 89.8778C23.1637 89.4422 23.0146 88.8954 23.0146 88.2372V77.4773ZM30.1293 91V76.4545H32.3239V82.7756H39.5753V76.4545H41.777V91H39.5753V84.6577H32.3239V91H30.1293ZM51.7131 86.4759V80.0909H53.8438V91H51.7557V89.1108H51.642C51.3911 89.6932 50.9886 90.1785 50.4347 90.5668C49.8854 90.9503 49.2012 91.142 48.3821 91.142C47.6813 91.142 47.0611 90.9882 46.5213 90.6804C45.9863 90.3679 45.5649 89.9062 45.2571 89.2955C44.9541 88.6847 44.8026 87.9295 44.8026 87.0298V80.0909H46.9261V86.7741C46.9261 87.5175 47.1321 88.1094 47.544 88.5497C47.956 88.9901 48.491 89.2102 49.1491 89.2102C49.5469 89.2102 49.9422 89.1108 50.3352 88.9119C50.733 88.7131 51.062 88.4124 51.3224 88.0099C51.5876 87.6075 51.7178 87.0961 51.7131 86.4759ZM56.8675 91V76.4545H58.9911V81.8594H59.119C59.2421 81.6321 59.4196 81.3693 59.6516 81.071C59.8836 80.7727 60.2056 80.5123 60.6175 80.2898C61.0295 80.0625 61.574 79.9489 62.2511 79.9489C63.1317 79.9489 63.9177 80.1714 64.609 80.6165C65.3003 81.0616 65.8424 81.7031 66.2354 82.5412C66.6332 83.3793 66.832 84.3878 66.832 85.5668C66.832 86.7457 66.6355 87.7566 66.2425 88.5994C65.8496 89.4375 65.3098 90.0838 64.6232 90.5384C63.9367 90.9882 63.1531 91.2131 62.2724 91.2131C61.6095 91.2131 61.0674 91.1018 60.646 90.8793C60.2293 90.6567 59.9026 90.3963 59.6658 90.098C59.4291 89.7997 59.2468 89.5346 59.119 89.3026H58.9414V91H56.8675ZM58.9485 85.5455C58.9485 86.3125 59.0598 86.9848 59.2823 87.5625C59.5049 88.1402 59.8268 88.5923 60.2482 88.919C60.6696 89.241 61.1857 89.402 61.7965 89.402C62.431 89.402 62.9613 89.2339 63.3874 88.8977C63.8136 88.5568 64.1355 88.0952 64.3533 87.5128C64.5759 86.9304 64.6871 86.2746 64.6871 85.5455C64.6871 84.8258 64.5782 84.1795 64.3604 83.6065C64.1474 83.0336 63.8254 82.5814 63.3945 82.25C62.9684 81.9186 62.4357 81.7528 61.7965 81.7528C61.181 81.7528 60.6602 81.9115 60.234 82.2287C59.8126 82.5459 59.493 82.9886 59.2752 83.5568C59.0574 84.125 58.9485 84.7879 58.9485 85.5455Z" fill="#09EAB4"/>
</svg>
