<svg width="172" height="96" viewBox="0 0 172 96" fill="none" xmlns="http://www.w3.org/2000/svg">
<path d="M106.922 17.9549C104.009 18.7032 101.604 19.104 99.1453 19.9859C97.1945 20.4936 95.2169 21.0281 92.9454 21.616L92.785 21.6428C91.6626 21.9635 91.5557 21.9902 90.5135 20.7876C89.2575 19.3712 88.3489 18.4626 86.6118 17.6075C81.3473 15.042 76.2697 15.7903 71.5396 18.8635C65.8742 22.5247 62.9613 27.9496 63.0415 34.684C63.1216 41.3649 67.6914 46.8433 74.0517 47.7519C79.9309 48.5002 84.6877 46.5226 88.4291 42.2735C88.9903 41.5787 89.498 40.8572 90.0592 40.0555C90.273 39.7882 90.4601 39.4943 90.6739 39.1736H74.6129C72.8758 39.1736 72.4482 38.1046 73.0361 36.6883C74.1051 34.0961 76.1094 29.7668 77.2852 27.6022C77.5258 27.1212 78.1137 26.0522 79.1292 26.0522H106.147C107.35 22.4712 109.3 18.8635 111.919 15.4428C117.986 7.45243 125.094 3.28352 135.222 1.54647C143.721 0.0499393 151.711 0.878379 158.98 5.79556C165.554 10.2852 169.616 16.3782 170.712 24.3686C172.128 35.6193 168.868 44.7589 160.904 52.5889C155.639 58.1742 148.905 61.675 141.155 63.2517C139.659 63.519 138.189 63.6526 136.746 63.7862C135.971 63.8397 135.222 63.9198 134.474 64C126.911 63.8397 119.99 61.675 114.164 56.6777C110.075 53.1234 107.243 48.7674 105.853 43.7166C104.864 45.6675 103.715 47.5649 102.112 49.3554C96.3393 57.2656 88.5092 62.1828 78.6214 63.4922C70.4439 64.5879 62.8811 63.0112 56.2002 58.0139C50.0537 53.3372 46.5529 47.1907 45.6443 39.521C44.5486 30.4349 47.221 22.0436 52.6993 15.1222C58.632 7.37226 66.4621 2.45508 76.0292 0.718037C83.8593 -0.938839 91.342 0.210285 98.1031 4.80678C102.513 7.71967 105.666 11.7015 107.75 16.5385C108.258 17.2868 107.911 17.7144 106.922 17.9549ZM12.9076 19.4514C12.5736 19.4514 12.4907 19.2911 12.6564 19.0238L14.4068 16.779C14.5725 16.5385 14.9894 16.3782 15.3234 16.3782H45.0563C45.377 16.3782 45.4572 16.6187 45.2968 16.8592L43.8805 19.0238C43.7201 19.2911 43.2926 19.5316 43.0521 19.5316L12.9076 19.4514ZM0.332983 27.1212C3.9503e-06 27.1212 -0.0832674 26.9341 0.0832753 26.6936L1.83192 24.4488C1.99868 24.2083 2.41503 24.0212 2.74721 24.0212H40.7271C41.0478 24.0212 41.2081 24.2884 41.1279 24.5289L40.4598 26.5332C40.3797 26.8539 40.059 27.041 39.7116 27.041L0.332983 27.1212ZM20.2353 34.2831C20.0696 34.5236 20.1524 34.7642 20.4838 34.7642L38.6426 34.8443C38.8831 34.8443 39.2305 34.6038 39.2305 34.2831L39.3909 32.2788C39.3909 31.9314 39.2305 31.6909 38.8831 31.6909H22.2342C21.9002 31.6909 21.5688 31.9314 21.4004 32.1987L20.2353 34.2831ZM154.25 29.4728C154.196 28.778 154.17 28.1901 154.063 27.6022C152.566 19.3712 144.977 14.6946 137.066 16.5385C129.316 18.2756 124.319 23.1928 122.502 31.0228C121.005 37.5167 124.159 44.0908 130.145 46.7631C134.741 48.7674 139.311 48.5269 143.721 46.2554C150.295 42.621 153.876 37.5167 154.303 30.3547C154.277 30.034 154.277 29.7401 154.25 29.4728Z" fill="#09EAB4"/>
<path d="M59.9565 81.0497C59.8192 80.6188 59.6345 80.233 59.4025 79.892C59.1752 79.5464 58.903 79.2528 58.5857 79.0114C58.2685 78.7652 57.9063 78.5781 57.4991 78.4503C57.0966 78.3224 56.6539 78.2585 56.171 78.2585C55.3518 78.2585 54.6132 78.4692 53.9551 78.8906C53.2969 79.312 52.7761 79.9299 52.3926 80.7443C52.0138 81.554 51.8244 82.5459 51.8244 83.7202C51.8244 84.8991 52.0161 85.8958 52.3997 86.7102C52.7832 87.5246 53.3087 88.1425 53.9764 88.5639C54.644 88.9853 55.4039 89.196 56.2562 89.196C57.0469 89.196 57.7358 89.035 58.3229 88.7131C58.9148 88.3911 59.3717 87.9366 59.6937 87.3494C60.0204 86.7576 60.1837 86.0616 60.1837 85.2614L60.7519 85.3679H56.59V83.5568H62.3073V85.2116C62.3073 86.4332 62.0469 87.4938 61.5261 88.3935C61.01 89.2884 60.295 89.9796 59.3812 90.4673C58.4721 90.955 57.4304 91.1989 56.2562 91.1989C54.9399 91.1989 53.7846 90.8958 52.7903 90.2898C51.8007 89.6837 51.0289 88.8243 50.4749 87.7116C49.921 86.5942 49.644 85.2685 49.644 83.7344C49.644 82.5743 49.805 81.5327 50.1269 80.6094C50.4489 79.6861 50.9011 78.9025 51.4835 78.2585C52.0706 77.6098 52.7595 77.1151 53.5502 76.7741C54.3457 76.4285 55.2145 76.2557 56.1568 76.2557C56.9427 76.2557 57.6743 76.3717 58.3514 76.6037C59.0332 76.8357 59.6392 77.1648 60.1695 77.5909C60.7046 78.017 61.1473 78.5237 61.4977 79.1108C61.848 79.6932 62.0848 80.3395 62.2079 81.0497H59.9565ZM69.5179 91.2202C68.4952 91.2202 67.6027 90.9858 66.8403 90.517C66.078 90.0483 65.4862 89.3925 65.0648 88.5497C64.6434 87.7069 64.4327 86.7221 64.4327 85.5952C64.4327 84.4635 64.6434 83.474 65.0648 82.6264C65.4862 81.7789 66.078 81.1207 66.8403 80.652C67.6027 80.1832 68.4952 79.9489 69.5179 79.9489C70.5406 79.9489 71.4332 80.1832 72.1955 80.652C72.9578 81.1207 73.5496 81.7789 73.971 82.6264C74.3924 83.474 74.6031 84.4635 74.6031 85.5952C74.6031 86.7221 74.3924 87.7069 73.971 88.5497C73.5496 89.3925 72.9578 90.0483 72.1955 90.517C71.4332 90.9858 70.5406 91.2202 69.5179 91.2202ZM69.525 89.4375C70.1879 89.4375 70.7371 89.2623 71.1727 88.9119C71.6083 88.5616 71.9303 88.0952 72.1386 87.5128C72.3517 86.9304 72.4582 86.2888 72.4582 85.5881C72.4582 84.892 72.3517 84.2528 72.1386 83.6705C71.9303 83.0833 71.6083 82.6122 71.1727 82.2571C70.7371 81.902 70.1879 81.7244 69.525 81.7244C68.8574 81.7244 68.3034 81.902 67.8631 82.2571C67.4275 82.6122 67.1031 83.0833 66.8901 83.6705C66.6817 84.2528 66.5776 84.892 66.5776 85.5881C66.5776 86.2888 66.6817 86.9304 66.8901 87.5128C67.1031 88.0952 67.4275 88.5616 67.8631 88.9119C68.3034 89.2623 68.8574 89.4375 69.525 89.4375ZM77.144 91V76.4545H79.3386V89.1108H85.9295V91H77.144ZM91.4373 91.2415C90.746 91.2415 90.121 91.1136 89.5623 90.858C89.0036 90.5975 88.5609 90.2211 88.2342 89.7287C87.9122 89.2363 87.7512 88.6326 87.7512 87.9176C87.7512 87.3021 87.8696 86.7955 88.1063 86.3977C88.3431 86 88.6627 85.6851 89.0651 85.4531C89.4676 85.2211 89.9174 85.0459 90.4146 84.9276C90.9117 84.8092 91.4184 84.7192 91.9345 84.6577C92.5879 84.5819 93.1182 84.5204 93.5254 84.473C93.9326 84.4209 94.2285 84.3381 94.4131 84.2244C94.5978 84.1108 94.6901 83.9261 94.6901 83.6705V83.6207C94.6901 83.0005 94.5149 82.5199 94.1646 82.179C93.8189 81.8381 93.3028 81.6676 92.6163 81.6676C91.9013 81.6676 91.3379 81.8262 90.9259 82.1435C90.5187 82.456 90.237 82.804 90.0808 83.1875L88.085 82.733C88.3218 82.0701 88.6674 81.535 89.122 81.1278C89.5812 80.7159 90.1092 80.4176 90.7058 80.233C91.3024 80.0436 91.9297 79.9489 92.5879 79.9489C93.0235 79.9489 93.4851 80.0009 93.9728 80.1051C94.4652 80.2045 94.9245 80.3892 95.3506 80.6591C95.7815 80.929 96.1343 81.3149 96.4089 81.8168C96.6835 82.3139 96.8208 82.9602 96.8208 83.7557V91H94.747V89.5085H94.6617C94.5244 89.7831 94.3185 90.053 94.0438 90.3182C93.7692 90.5833 93.4165 90.8035 92.9856 90.9787C92.5547 91.1539 92.0386 91.2415 91.4373 91.2415ZM91.8989 89.5369C92.4861 89.5369 92.988 89.4209 93.4046 89.1889C93.826 88.9569 94.1456 88.6539 94.3634 88.2798C94.586 87.901 94.6972 87.4962 94.6972 87.0653V85.6591C94.6215 85.7348 94.4747 85.8059 94.2569 85.8722C94.0438 85.9337 93.8 85.9882 93.5254 86.0355C93.2507 86.0781 92.9832 86.1184 92.7228 86.1562C92.4624 86.1894 92.2446 86.2178 92.0694 86.2415C91.6575 86.2936 91.281 86.3812 90.9401 86.5043C90.604 86.6274 90.3341 86.8049 90.1305 87.0369C89.9316 87.2642 89.8322 87.5672 89.8322 87.946C89.8322 88.4716 90.0263 88.8693 90.4146 89.1392C90.8028 89.4044 91.2976 89.5369 91.8989 89.5369ZM101.773 84.5227V91H99.6493V80.0909H101.688V81.8665H101.823C102.074 81.2888 102.467 80.8248 103.002 80.4744C103.541 80.1241 104.221 79.9489 105.04 79.9489C105.783 79.9489 106.434 80.1051 106.993 80.4176C107.552 80.7254 107.985 81.1847 108.293 81.7955C108.601 82.4062 108.754 83.1615 108.754 84.0611V91H106.631V84.3168C106.631 83.526 106.425 82.9081 106.013 82.4631C105.601 82.0133 105.035 81.7884 104.315 81.7884C103.823 81.7884 103.385 81.8949 103.002 82.108C102.623 82.321 102.322 82.6335 102.1 83.0455C101.882 83.4527 101.773 83.9451 101.773 84.5227ZM116.176 95.3182C115.31 95.3182 114.564 95.2045 113.939 94.9773C113.319 94.75 112.812 94.4493 112.419 94.0753C112.026 93.7012 111.733 93.2917 111.539 92.8466L113.364 92.0938C113.492 92.3021 113.662 92.5223 113.875 92.7543C114.093 92.991 114.387 93.1922 114.756 93.358C115.13 93.5237 115.61 93.6065 116.198 93.6065C117.003 93.6065 117.668 93.41 118.193 93.017C118.719 92.6288 118.982 92.0085 118.982 91.1562V89.0114H118.847C118.719 89.2434 118.534 89.5014 118.293 89.7855C118.056 90.0696 117.729 90.3158 117.313 90.5241C116.896 90.7325 116.354 90.8366 115.686 90.8366C114.824 90.8366 114.048 90.6354 113.357 90.233C112.67 89.8258 112.126 89.2268 111.723 88.4361C111.325 87.6406 111.127 86.6629 111.127 85.5028C111.127 84.3428 111.323 83.3485 111.716 82.5199C112.114 81.6913 112.658 81.0568 113.35 80.6165C114.041 80.1714 114.824 79.9489 115.7 79.9489C116.378 79.9489 116.924 80.0625 117.341 80.2898C117.758 80.5123 118.082 80.7727 118.314 81.071C118.551 81.3693 118.733 81.6321 118.861 81.8594H119.017V80.0909H121.098V91.2415C121.098 92.179 120.88 92.9484 120.445 93.5497C120.009 94.151 119.42 94.5961 118.676 94.8849C117.938 95.1738 117.104 95.3182 116.176 95.3182ZM116.155 89.0753C116.766 89.0753 117.282 88.9332 117.703 88.6491C118.129 88.3603 118.451 87.9484 118.669 87.4134C118.892 86.8736 119.003 86.2273 119.003 85.4744C119.003 84.7405 118.894 84.0942 118.676 83.5355C118.458 82.9768 118.139 82.5412 117.717 82.2287C117.296 81.9115 116.775 81.7528 116.155 81.7528C115.516 81.7528 114.983 81.9186 114.557 82.25C114.131 82.5767 113.809 83.0218 113.591 83.5852C113.378 84.1487 113.271 84.7784 113.271 85.4744C113.271 86.1894 113.38 86.8168 113.598 87.3565C113.816 87.8963 114.138 88.3177 114.564 88.6207C114.995 88.9238 115.525 89.0753 116.155 89.0753Z" fill="#09EAB4"/>
</svg>
