<svg width="500" height="500" viewBox="0 0 500 500" fill="none" xmlns="http://www.w3.org/2000/svg">
<path d="M392.853 155.248C392.853 155.248 351.297 98.335 297.094 74.847C242.891 51.359 179.654 63.103 138.098 107.369C96.542 151.635 113.707 222.099 92.929 286.239C72.151 350.379 88.412 415.423 156.166 434.394C223.92 453.365 241.084 407.292 313.355 389.225C385.626 371.157 483.191 290.755 392.853 155.248Z" fill="#09EAB4"/>
<path d="M268.681 419.475V410.376H241.883V419.475C241.883 422.444 240.88 425.326 239.037 427.654L237.863 429.136H272.7L271.527 427.654C269.684 425.326 268.681 422.444 268.681 419.475Z" fill="white" stroke="#0C3C4C" stroke-miterlimit="10" stroke-linecap="round" stroke-linejoin="round"/>
<path d="M240.238 425.846H270.326C269.253 423.905 268.681 421.715 268.681 419.474V417.851V410.375H241.883V417.851V419.474C241.883 421.715 241.31 423.906 240.238 425.846Z" fill="#93FCEC"/>
<path d="M268.681 411.745H241.883V415.586H268.681V411.745Z" fill="#0C3C4C" stroke="#0C3C4C" stroke-width="1.0954" stroke-miterlimit="10" stroke-linecap="round" stroke-linejoin="round"/>
<path d="M299.839 413.245H210.725C205.592 413.245 201.431 409.084 201.431 403.951V341.763C201.431 336.63 205.592 332.469 210.725 332.469H299.838C304.971 332.469 309.132 336.63 309.132 341.763V403.951C309.133 409.084 304.971 413.245 299.839 413.245Z" fill="#0C3C4C" stroke="#0C3C4C" stroke-width="1.0954" stroke-miterlimit="10" stroke-linecap="round" stroke-linejoin="round"/>
<path d="M299.839 413.245H210.725C205.592 413.245 201.431 409.084 201.431 403.951V400.689H309.133V403.951C309.133 409.084 304.972 413.245 299.839 413.245Z" fill="white" stroke="#0C3C4C" stroke-miterlimit="10" stroke-linecap="round" stroke-linejoin="round"/>
<path d="M303.715 337.494H206.848V394.562H303.715V337.494Z" fill="#93FCEC" stroke="#0C3C4C" stroke-width="1.0954" stroke-miterlimit="10" stroke-linecap="round" stroke-linejoin="round"/>
<path d="M257.268 406.967C257.268 405.87 256.379 404.981 255.282 404.981C254.185 404.981 253.296 405.87 253.296 406.967C253.296 408.064 254.185 408.953 255.282 408.953C256.379 408.953 257.268 408.064 257.268 406.967Z" fill="#0C3C4C" stroke="#0C3C4C" stroke-width="1.0954" stroke-miterlimit="10" stroke-linecap="round" stroke-linejoin="round"/>
<path d="M272.707 429.135H237.863V430.76H272.707V429.135Z" fill="white" stroke="#0C3C4C" stroke-miterlimit="10" stroke-linecap="round" stroke-linejoin="round"/>
<path d="M243.027 336.593C243.027 336.593 238.315 335.284 234.913 337.902C231.51 340.519 231.248 347.325 233.342 350.728C235.436 354.131 238.315 356.225 234.651 358.581C230.987 360.937 228.369 362.507 228.893 366.695C229.416 370.883 233.343 376.38 239.625 376.642C245.907 376.904 253.498 371.407 253.498 365.387C253.498 359.367 249.048 355.44 250.619 352.038C252.19 348.635 256.901 344.185 253.237 339.474C249.571 334.76 243.027 336.593 243.027 336.593Z" fill="#0C3C4C" stroke="#0C3C4C" stroke-miterlimit="10" stroke-linecap="round" stroke-linejoin="round"/>
<path d="M289.118 393.692L278.476 371.059H230.439L221.445 393.692H289.118Z" fill="white" stroke="#0C3C4C" stroke-miterlimit="10" stroke-linecap="round" stroke-linejoin="round"/>
<path d="M271.176 393.692L278.476 371.059L254.366 357.93L230.439 371.059L236.122 393.692H271.176Z" fill="white" stroke="#0C3C4C" stroke-miterlimit="10" stroke-linecap="round" stroke-linejoin="round"/>
<path d="M250.243 360.192L243.388 363.954C242.13 367.356 240.999 372.591 244.337 375.594C246.441 377.488 254.545 371.406 254.545 371.406C254.545 371.406 260.304 377.688 265.015 375.594C268.351 374.111 266.83 368.176 264.822 363.624L257.351 359.556L250.243 360.192Z" fill="white" stroke="#0C3C4C" stroke-miterlimit="10" stroke-linecap="round" stroke-linejoin="round"/>
<path d="M247.767 351.801V361.808L250.324 369.251C251.505 372.688 256.379 372.647 257.503 369.191L259.95 361.663V351.221L247.767 351.801Z" fill="white" stroke="#0C3C4C" stroke-miterlimit="10" stroke-linecap="round" stroke-linejoin="round"/>
<path d="M245.135 340.506C245.135 340.506 242.613 336.022 241.211 338.544C239.81 341.066 241.772 346.392 242.612 347.793C243.453 349.194 244.854 346.952 244.854 346.952" fill="white"/>
<path d="M245.135 340.506C245.135 340.506 242.613 336.022 241.211 338.544C239.81 341.066 241.772 346.392 242.612 347.793C243.453 349.194 244.854 346.952 244.854 346.952" stroke="#0C3C4C" stroke-miterlimit="10" stroke-linecap="round" stroke-linejoin="round"/>
<path d="M263.203 340.506C263.203 340.506 265.726 336.022 267.127 338.544C268.528 341.066 266.566 346.392 265.726 347.793C264.885 349.194 263.484 346.952 263.484 346.952" fill="white"/>
<path d="M263.203 340.506C263.203 340.506 265.726 336.022 267.127 338.544C268.528 341.066 266.566 346.392 265.726 347.793C264.885 349.194 263.484 346.952 263.484 346.952" stroke="#0C3C4C" stroke-miterlimit="10" stroke-linecap="round" stroke-linejoin="round"/>
<path d="M264.474 339.665C264.474 347.559 259.831 358.443 254.104 358.443C248.377 358.443 243.734 347.559 243.734 339.665C243.734 331.771 248.377 325.371 254.104 325.371C259.831 325.372 264.474 331.771 264.474 339.665Z" fill="white" stroke="#0C3C4C" stroke-miterlimit="10" stroke-linecap="round" stroke-linejoin="round"/>
<path d="M250.095 333.452C250.095 333.452 252.189 328.74 255.592 333.452C258.995 338.163 257.424 341.566 260.304 342.613C263.184 343.66 264.492 341.304 264.492 341.304C264.492 341.304 272.606 335.807 264.492 326.908C260.943 323.015 256.116 321.673 251.928 321.935C247.74 322.197 247.216 327.432 247.216 327.432C247.216 327.432 244.075 326.647 242.766 330.311C241.457 333.976 244.075 344.184 244.075 341.566C244.075 338.948 247.477 330.834 250.095 333.452Z" fill="#0C3C4C" stroke="#0C3C4C" stroke-miterlimit="10" stroke-linecap="round" stroke-linejoin="round"/>
<path d="M394.896 292.298V283.2H368.098V292.299C368.098 295.268 367.095 298.15 365.252 300.478L364.078 301.96H398.915L397.742 300.478C395.899 298.15 394.896 295.267 394.896 292.298Z" fill="white" stroke="#0C3C4C" stroke-miterlimit="10" stroke-linecap="round" stroke-linejoin="round"/>
<path d="M366.453 298.67H396.541C395.468 296.729 394.896 294.539 394.896 292.298V290.675V283.2H368.098V290.676V292.299C368.098 294.539 367.526 296.729 366.453 298.67Z" fill="#93FCEC"/>
<path d="M394.896 284.569H368.098V288.41H394.896V284.569Z" fill="#0C3C4C" stroke="#0C3C4C" stroke-width="1.0954" stroke-miterlimit="10" stroke-linecap="round" stroke-linejoin="round"/>
<path d="M426.054 286.069H336.94C331.807 286.069 327.646 281.908 327.646 276.775V214.587C327.646 209.454 331.807 205.293 336.94 205.293H426.053C431.186 205.293 435.347 209.454 435.347 214.587V276.775C435.348 281.908 431.187 286.069 426.054 286.069Z" fill="#0C3C4C" stroke="#0C3C4C" stroke-width="1.0954" stroke-miterlimit="10" stroke-linecap="round" stroke-linejoin="round"/>
<path d="M426.054 286.069H336.94C331.807 286.069 327.646 281.908 327.646 276.775V273.513H435.348V276.775C435.348 281.908 431.187 286.069 426.054 286.069Z" fill="white" stroke="#0C3C4C" stroke-miterlimit="10" stroke-linecap="round" stroke-linejoin="round"/>
<path d="M429.931 210.318H333.064V267.386H429.931V210.318Z" fill="#93FCEC" stroke="#0C3C4C" stroke-width="1.0954" stroke-miterlimit="10" stroke-linecap="round" stroke-linejoin="round"/>
<path d="M383.484 279.791C383.484 278.694 382.595 277.805 381.498 277.805C380.401 277.805 379.512 278.694 379.512 279.791C379.512 280.888 380.401 281.777 381.498 281.777C382.594 281.777 383.484 280.888 383.484 279.791Z" fill="#0C3C4C" stroke="#0C3C4C" stroke-width="1.0954" stroke-miterlimit="10" stroke-linecap="round" stroke-linejoin="round"/>
<path d="M398.924 301.959H364.079V303.584H398.924V301.959Z" fill="white" stroke="#0C3C4C" stroke-miterlimit="10" stroke-linecap="round" stroke-linejoin="round"/>
<path d="M415.149 266.981L404.692 244.741H356.654L347.817 266.981H415.149Z" fill="white" stroke="#0C3C4C" stroke-miterlimit="10" stroke-linecap="round" stroke-linejoin="round"/>
<path d="M404.692 266.981V244.741L386.093 234.075L380.581 231.612L374.377 234.075L356.654 244.741V266.981H404.692Z" fill="white" stroke="#0C3C4C" stroke-miterlimit="10" stroke-linecap="round" stroke-linejoin="round"/>
<path d="M376.252 248.001L379.532 253.156L377.892 266.746H383.75L380.938 253.156L384.687 247.766L379.767 242.143L376.252 248.001Z" fill="#0C3C4C" stroke="#0C3C4C" stroke-miterlimit="10" stroke-linecap="round" stroke-linejoin="round"/>
<path d="M380.219 246.595L375.08 250.578L371.331 236.285L374.377 234.075H386.093L388.671 235.816L386.562 250.813L380.219 246.595Z" fill="white" stroke="#0C3C4C" stroke-miterlimit="10" stroke-linecap="round" stroke-linejoin="round"/>
<path d="M373.983 225.483V235.491L380.219 246.595L386.166 235.346V224.903L373.983 225.483Z" fill="white" stroke="#0C3C4C" stroke-miterlimit="10" stroke-linecap="round" stroke-linejoin="round"/>
<path d="M371.351 214.189C371.351 214.189 368.828 209.705 367.427 212.227C366.026 214.75 367.988 220.075 368.828 221.476C369.669 222.877 371.07 220.635 371.07 220.635" fill="white"/>
<path d="M371.351 214.189C371.351 214.189 368.828 209.705 367.427 212.227C366.026 214.75 367.988 220.075 368.828 221.476C369.669 222.877 371.07 220.635 371.07 220.635" stroke="#0C3C4C" stroke-miterlimit="10" stroke-linecap="round" stroke-linejoin="round"/>
<path d="M389.419 214.189C389.419 214.189 391.941 209.705 393.343 212.227C394.744 214.75 392.782 220.075 391.942 221.476C391.101 222.877 389.7 220.635 389.7 220.635" fill="white"/>
<path d="M389.419 214.189C389.419 214.189 391.941 209.705 393.343 212.227C394.744 214.75 392.782 220.075 391.942 221.476C391.101 222.877 389.7 220.635 389.7 220.635" stroke="#0C3C4C" stroke-miterlimit="10" stroke-linecap="round" stroke-linejoin="round"/>
<path d="M390.69 213.348C390.69 221.242 386.047 232.126 380.32 232.126C374.593 232.126 369.95 221.242 369.95 213.348C369.95 205.454 374.593 199.054 380.32 199.054C386.047 199.054 390.69 205.454 390.69 213.348Z" fill="white" stroke="#0C3C4C" stroke-miterlimit="10" stroke-linecap="round" stroke-linejoin="round"/>
<path d="M367.816 256.202L375.199 266.981H385.651L393.357 259.014L388.436 252.922L394.529 252.453L393.826 238.862L388.671 235.816L380.001 266.746L371.331 236.285L367.113 238.862L365.473 251.047L370.628 251.984L367.816 256.202Z" fill="white" stroke="#0C3C4C" stroke-miterlimit="10" stroke-linecap="round" stroke-linejoin="round"/>
<path d="M369.925 215.43C369.925 215.43 372.248 215.734 371.8 214.961C371.351 214.188 371.8 211.446 371.8 211.446C371.8 211.446 372.503 210.977 372.972 209.806C373.441 208.634 372.269 206.994 372.269 205.588C372.269 204.182 379.533 206.994 380.705 206.994C381.877 206.994 388.438 205.354 388.438 205.354C388.438 205.354 387.266 209.572 387.969 210.04C388.672 210.509 389.141 212.617 389.141 212.617C389.141 212.617 388.438 216.366 388.672 217.069C388.906 217.772 390.312 218.241 390.547 217.538C390.781 216.835 390.781 210.743 390.781 210.743C390.781 210.743 392.421 210.977 392.421 207.697C392.421 204.417 390.546 197.153 387.266 195.747C383.985 194.341 376.487 194.341 373.441 195.981C370.395 197.621 368.286 205.12 368.989 207.697C369.691 210.275 369.925 215.43 369.925 215.43Z" fill="#0C3C4C" stroke="#0C3C4C" stroke-miterlimit="10" stroke-linecap="round" stroke-linejoin="round"/>
<path d="M268.681 168.195V159.096H241.883V168.195C241.883 171.164 240.88 174.046 239.037 176.374L237.863 177.856H272.7L271.527 176.374C269.684 174.046 268.681 171.164 268.681 168.195Z" fill="white" stroke="#0C3C4C" stroke-miterlimit="10" stroke-linecap="round" stroke-linejoin="round"/>
<path d="M240.238 174.567H270.326C269.253 172.626 268.681 170.436 268.681 168.195V166.572V159.096H241.883V166.572V168.195C241.883 170.436 241.31 172.626 240.238 174.567Z" fill="#93FCEC"/>
<path d="M268.681 160.466H241.883V164.307H268.681V160.466Z" fill="#0C3C4C" stroke="#0C3C4C" stroke-width="1.0954" stroke-miterlimit="10" stroke-linecap="round" stroke-linejoin="round"/>
<path d="M299.839 161.966H210.725C205.592 161.966 201.431 157.805 201.431 152.672V90.483C201.431 85.35 205.592 81.189 210.725 81.189H299.838C304.971 81.189 309.132 85.35 309.132 90.483V152.671C309.133 157.805 304.971 161.966 299.839 161.966Z" fill="#0C3C4C" stroke="#0C3C4C" stroke-width="1.0954" stroke-miterlimit="10" stroke-linecap="round" stroke-linejoin="round"/>
<path d="M299.839 161.966H210.725C205.592 161.966 201.431 157.805 201.431 152.672V149.41H309.133V152.672C309.133 157.805 304.972 161.966 299.839 161.966Z" fill="white" stroke="#0C3C4C" stroke-miterlimit="10" stroke-linecap="round" stroke-linejoin="round"/>
<path d="M303.715 86.215H206.848V143.283H303.715V86.215Z" fill="#93FCEC" stroke="#0C3C4C" stroke-width="1.0954" stroke-miterlimit="10" stroke-linecap="round" stroke-linejoin="round"/>
<path d="M255.282 157.674C256.379 157.674 257.268 156.785 257.268 155.688C257.268 154.591 256.379 153.702 255.282 153.702C254.185 153.702 253.296 154.591 253.296 155.688C253.296 156.785 254.185 157.674 255.282 157.674Z" fill="#0C3C4C" stroke="#0C3C4C" stroke-width="1.0954" stroke-miterlimit="10" stroke-linecap="round" stroke-linejoin="round"/>
<path d="M272.707 177.856H237.863V179.481H272.707V177.856Z" fill="white" stroke="#0C3C4C" stroke-miterlimit="10" stroke-linecap="round" stroke-linejoin="round"/>
<path d="M289.118 143.033L278.476 120.4H230.439L221.445 143.033H289.118Z" fill="white" stroke="#0C3C4C" stroke-miterlimit="10" stroke-linecap="round" stroke-linejoin="round"/>
<path d="M238.291 92.092C238.291 92.092 236.56 100.162 238.313 103.448C240.066 106.734 242.476 110.678 241.161 113.526C239.846 116.374 238.532 117.031 238.094 122.508C237.656 127.985 246.419 138.94 256.497 137.844C266.575 136.749 272.49 128.423 270.738 121.632C268.985 114.84 266.137 113.964 267.013 109.582C267.889 105.2 270.08 102.352 268.985 96.437C267.89 90.522 262.632 80.882 256.278 78.691C249.924 76.5 245.93 79.574 243.571 83.73C241.212 87.886 238.707 90.376 238.291 92.092Z" fill="#0C3C4C" stroke="#0C3C4C" stroke-miterlimit="10" stroke-linecap="round" stroke-linejoin="round"/>
<path d="M271.176 143.033L278.476 120.4L254.366 107.271L230.439 120.4L236.122 143.033H271.176Z" fill="white" stroke="#0C3C4C" stroke-miterlimit="10" stroke-linecap="round" stroke-linejoin="round"/>
<path d="M244.968 112.428L242.475 120.099L248.171 121.632L243.132 125.357L253.648 135.654L263.507 126.452L258.688 121.851L265.479 120.099L263.705 112.357L254.366 107.271L244.968 112.428Z" fill="white" stroke="#0C3C4C" stroke-miterlimit="10" stroke-linecap="round" stroke-linejoin="round"/>
<path d="M247.767 101.142V111.15L254.004 129.3L259.95 111.005V100.562L247.767 101.142Z" fill="white" stroke="#0C3C4C" stroke-miterlimit="10" stroke-linecap="round" stroke-linejoin="round"/>
<path d="M245.135 89.848C245.135 89.848 242.613 85.364 241.211 87.886C239.81 90.408 241.772 95.734 242.612 97.135C243.453 98.536 244.854 96.294 244.854 96.294" fill="white"/>
<path d="M245.135 89.848C245.135 89.848 242.613 85.364 241.211 87.886C239.81 90.408 241.772 95.734 242.612 97.135C243.453 98.536 244.854 96.294 244.854 96.294" stroke="#0C3C4C" stroke-miterlimit="10" stroke-linecap="round" stroke-linejoin="round"/>
<path d="M263.203 89.848C263.203 89.848 265.726 85.364 267.127 87.886C268.528 90.408 266.566 95.734 265.726 97.135C264.885 98.536 263.484 96.294 263.484 96.294" fill="white"/>
<path d="M263.203 89.848C263.203 89.848 265.726 85.364 267.127 87.886C268.528 90.408 266.566 95.734 265.726 97.135C264.885 98.536 263.484 96.294 263.484 96.294" stroke="#0C3C4C" stroke-miterlimit="10" stroke-linecap="round" stroke-linejoin="round"/>
<path d="M264.474 89.007C264.474 96.901 259.831 107.785 254.104 107.785C248.377 107.785 243.734 96.901 243.734 89.007C243.734 81.113 248.377 74.713 254.104 74.713C259.831 74.713 264.474 81.113 264.474 89.007Z" fill="white" stroke="#0C3C4C" stroke-miterlimit="10" stroke-linecap="round" stroke-linejoin="round"/>
<path d="M252.115 78.69C252.115 76.369 251.412 73.245 248.192 74.335C244.405 75.616 241.898 83.719 240.065 87.017C238.879 89.151 238.412 90.822 238.291 92.093C237.394 97.687 242.037 102.354 242.037 102.354C242.037 102.354 240.942 96.439 241.599 92.496C241.966 90.296 243.085 89.458 245.02 88.699C249.456 86.958 252.115 83.716 252.115 78.69Z" fill="#0C3C4C" stroke="#0C3C4C" stroke-miterlimit="10" stroke-linecap="round" stroke-linejoin="round"/>
<path d="M272.217 89.699C270.976 87.405 269.262 85.54 267.013 83.292C264.603 80.882 263.289 74.967 257.811 72.995C252.334 71.023 249.924 73.652 250.143 77.596C250.183 78.316 250.268 78.939 250.378 79.479C250.375 79.51 250.365 79.536 250.362 79.568C250.362 79.568 250.392 79.67 250.465 79.859C250.982 81.975 251.896 82.636 251.896 82.636L252.044 82.727C252.873 83.951 254.084 85.481 255.84 87.237C260.441 91.838 266.137 96 266.356 100.82C266.535 104.759 265.116 107.836 264.348 111.812L264.165 111.775C264.165 111.775 263.508 115.28 261.536 117.69C259.564 120.1 259.345 121.852 263.946 122.072C270.111 122.366 273.183 114.192 274.032 109.232C274.794 104.782 274.986 99.9 274.131 95.343C273.706 93.076 273.074 91.285 272.217 89.699Z" fill="#0C3C4C" stroke="#0C3C4C" stroke-miterlimit="10" stroke-linecap="round" stroke-linejoin="round"/>
<path d="M142.465 292.298V283.2H115.667V292.299C115.667 295.268 114.664 298.15 112.821 300.478L111.647 301.96H146.484L145.311 300.478C143.468 298.15 142.465 295.267 142.465 292.298Z" fill="white" stroke="#0C3C4C" stroke-miterlimit="10" stroke-linecap="round" stroke-linejoin="round"/>
<path d="M114.022 298.67H144.11C143.037 296.729 142.465 294.539 142.465 292.298V290.675V283.2H115.667V290.676V292.299C115.667 294.539 115.095 296.729 114.022 298.67Z" fill="#93FCEC"/>
<path d="M142.465 284.569H115.667V288.41H142.465V284.569Z" fill="#0C3C4C" stroke="#0C3C4C" stroke-width="1.0954" stroke-miterlimit="10" stroke-linecap="round" stroke-linejoin="round"/>
<path d="M173.623 286.069H84.509C79.376 286.069 75.215 281.908 75.215 276.775V214.587C75.215 209.454 79.376 205.293 84.509 205.293H173.622C178.755 205.293 182.916 209.454 182.916 214.587V276.775C182.917 281.908 178.756 286.069 173.623 286.069Z" fill="#0C3C4C" stroke="#0C3C4C" stroke-width="1.0954" stroke-miterlimit="10" stroke-linecap="round" stroke-linejoin="round"/>
<path d="M173.623 286.069H84.509C79.376 286.069 75.215 281.908 75.215 276.775V273.513H182.917V276.775C182.917 281.908 178.756 286.069 173.623 286.069Z" fill="white" stroke="#0C3C4C" stroke-miterlimit="10" stroke-linecap="round" stroke-linejoin="round"/>
<path d="M177.5 210.318H80.633V267.386H177.5V210.318Z" fill="#93FCEC" stroke="#0C3C4C" stroke-width="1.0954" stroke-miterlimit="10" stroke-linecap="round" stroke-linejoin="round"/>
<path d="M131.052 279.791C131.052 278.694 130.163 277.805 129.066 277.805C127.969 277.805 127.08 278.694 127.08 279.791C127.08 280.888 127.969 281.777 129.066 281.777C130.163 281.777 131.052 280.888 131.052 279.791Z" fill="#0C3C4C" stroke="#0C3C4C" stroke-width="1.0954" stroke-miterlimit="10" stroke-linecap="round" stroke-linejoin="round"/>
<path d="M146.492 301.959H111.648V303.584H146.492V301.959Z" fill="white" stroke="#0C3C4C" stroke-miterlimit="10" stroke-linecap="round" stroke-linejoin="round"/>
<path d="M162.903 267.137L152.261 244.503H104.223L95.23 267.137H162.903Z" fill="white" stroke="#0C3C4C" stroke-miterlimit="10" stroke-linecap="round" stroke-linejoin="round"/>
<path d="M152.261 267.137V244.503L136.704 233.837L128.15 231.374L119.596 233.837L104.223 244.503V267.137H152.261Z" fill="white" stroke="#0C3C4C" stroke-miterlimit="10" stroke-linecap="round" stroke-linejoin="round"/>
<path d="M123.018 229.389C123.018 229.389 119.596 230.415 118.912 231.1C118.228 231.784 117.715 235.377 117.03 237.259C116.346 239.141 114.122 242.391 114.806 242.562C115.49 242.733 121.307 239.825 121.307 239.825L127.979 247.385L134.309 239.483C134.309 239.483 139.27 243.247 139.612 242.734C139.954 242.221 137.388 236.062 137.217 233.496C137.046 230.93 133.282 230.075 131.058 229.904C128.835 229.731 123.018 229.389 123.018 229.389Z" fill="white" stroke="#0C3C4C" stroke-miterlimit="10" stroke-linecap="round" stroke-linejoin="round"/>
<path d="M121.552 225.246V235.253L127.788 246.736L133.735 235.108V224.665L121.552 225.246Z" fill="white" stroke="#0C3C4C" stroke-miterlimit="10" stroke-linecap="round" stroke-linejoin="round"/>
<path d="M118.92 213.951C118.92 213.951 116.398 209.467 114.996 211.989C113.595 214.511 115.557 219.837 116.397 221.238C117.238 222.639 118.639 220.397 118.639 220.397" fill="white"/>
<path d="M118.92 213.951C118.92 213.951 116.398 209.467 114.996 211.989C113.595 214.511 115.557 219.837 116.397 221.238C117.238 222.639 118.639 220.397 118.639 220.397" stroke="#0C3C4C" stroke-miterlimit="10" stroke-linecap="round" stroke-linejoin="round"/>
<path d="M136.988 213.951C136.988 213.951 139.51 209.467 140.912 211.989C142.313 214.511 140.351 219.837 139.511 221.238C138.67 222.639 137.269 220.397 137.269 220.397" fill="white"/>
<path d="M136.988 213.951C136.988 213.951 139.51 209.467 140.912 211.989C142.313 214.511 140.351 219.837 139.511 221.238C138.67 222.639 137.269 220.397 137.269 220.397" stroke="#0C3C4C" stroke-miterlimit="10" stroke-linecap="round" stroke-linejoin="round"/>
<path d="M138.259 213.11C138.259 221.004 133.616 231.888 127.889 231.888C122.162 231.888 117.519 221.004 117.519 213.11C117.519 205.216 122.162 198.816 127.889 198.816C133.616 198.816 138.259 205.216 138.259 213.11Z" fill="white" stroke="#0C3C4C" stroke-miterlimit="10" stroke-linecap="round" stroke-linejoin="round"/>
<path d="M136.055 209.147C136.055 209.147 135.33 211.177 136.2 212.048C137.07 212.918 136.925 214.224 136.78 215.964C136.635 217.704 137.07 218.72 137.65 218.14C138.23 217.56 138.81 209.438 138.81 208.858C138.811 208.277 136.055 209.147 136.055 209.147Z" fill="#0C3C4C" stroke="#0C3C4C" stroke-miterlimit="10" stroke-linecap="round" stroke-linejoin="round"/>
<path d="M117.636 211.902L117.926 216.398C117.926 216.398 118.796 216.688 119.086 215.818C119.376 214.948 118.651 212.192 119.376 210.742C120.101 209.292 122.857 208.566 123.002 207.551C123.147 206.536 121.552 204.65 121.552 203.925C121.552 203.2 121.987 202.475 125.613 205.956C129.239 209.437 135.91 210.162 139.391 209.292C142.872 208.422 138.666 203.201 137.796 202.04C136.926 200.88 140.116 201.75 138.376 198.849C136.636 195.948 130.544 194.063 124.453 196.238C118.362 198.413 114.881 201.459 115.751 204.505C116.621 207.551 117.636 211.902 117.636 211.902Z" fill="#0C3C4C" stroke="#0C3C4C" stroke-miterlimit="10" stroke-linecap="round" stroke-linejoin="round"/>
<path d="M256.914 254.595H253.825V265.794H256.914C261.548 265.794 262.983 263.698 262.983 260.002C262.983 256.36 261.548 254.595 256.914 254.595Z" fill="#0C3C4C"/>
<path d="M255.282 212.437C233.578 212.437 215.983 230.032 215.983 251.736C215.983 273.44 233.578 291.035 255.282 291.035C276.986 291.035 294.58 273.44 294.58 251.736C294.58 230.032 276.986 212.437 255.282 212.437ZM255.282 285.251C236.801 285.251 221.766 270.216 221.766 251.735C221.766 233.254 236.801 218.219 255.282 218.219C273.762 218.219 288.797 233.254 288.797 251.735C288.797 270.216 273.762 285.251 255.282 285.251Z" fill="#0C3C4C"/>
<path d="M262.1 244.059C262.1 240.804 260.666 239.205 256.584 239.205H253.825V249.024H256.584C260.611 249.023 262.1 247.314 262.1 244.059Z" fill="#0C3C4C"/>
<path d="M255.282 220.524C238.072 220.524 224.071 234.525 224.071 251.735C224.071 268.945 238.072 282.946 255.282 282.946C272.491 282.946 286.492 268.945 286.492 251.735C286.492 234.525 272.491 220.524 255.282 220.524ZM261.54 270.033V277.032H257.571V270.315C257.466 270.316 257.366 270.322 257.26 270.322H253.886V277.032H249.917V270.322H241.072V265.046H242.813C243.53 265.046 244.299 264.124 244.299 263.509V241.226C244.299 240.611 243.53 239.689 242.813 239.689H241.072V234.464H249.917V227.705H253.886V234.464H256.952C257.165 234.464 257.363 234.474 257.571 234.477V227.705H261.54V234.763C267.792 235.654 271.09 238.57 271.09 243.685C271.09 248.193 268.529 250.396 263.816 251.369V251.575C269.297 252.394 272.319 255.058 272.319 259.924C272.319 265.742 268.271 269.085 261.54 270.033Z" fill="#0C3C4C"/>
<path d="M255.688 285.858V317.266" stroke="#0C3C4C" stroke-width="2" stroke-miterlimit="10"/>
<path d="M250.602 315.777L255.688 324.585L260.774 315.777H250.602Z" fill="#0C3C4C"/>
<path d="M255.688 218.613V187.205" stroke="#0C3C4C" stroke-width="2" stroke-miterlimit="10"/>
<path d="M260.774 188.693L255.689 179.886L250.603 188.693H260.774Z" fill="#0C3C4C"/>
<path d="M222.066 252.235H190.658" stroke="#0C3C4C" stroke-width="2" stroke-miterlimit="10"/>
<path d="M192.146 247.149L183.339 252.235L192.146 257.321V247.149Z" fill="#0C3C4C"/>
<path d="M201.029 173.489L178.057 196.462" stroke="#0C3C4C" stroke-width="2" stroke-miterlimit="10"/>
<path d="M196.38 170.945L206.204 168.314L203.573 178.138L196.38 170.945Z" fill="#0C3C4C"/>
<path d="M175.513 191.813L172.881 201.637L182.705 199.005L175.513 191.813Z" fill="#0C3C4C"/>
<path d="M311.926 173.489L334.898 196.462" stroke="#0C3C4C" stroke-width="2" stroke-miterlimit="10"/>
<path d="M309.382 178.138L306.75 168.314L316.574 170.946L309.382 178.138Z" fill="#0C3C4C"/>
<path d="M330.25 199.006L340.073 201.638L337.442 191.813L330.25 199.006Z" fill="#0C3C4C"/>
<path d="M201.029 326.595L178.057 303.622" stroke="#0C3C4C" stroke-width="2" stroke-miterlimit="10"/>
<path d="M203.573 321.946L206.205 331.77L196.381 329.138L203.573 321.946Z" fill="#0C3C4C"/>
<path d="M182.705 301.078L172.882 298.447L175.513 308.271L182.705 301.078Z" fill="#0C3C4C"/>
<path d="M311.926 326.595L334.898 303.622" stroke="#0C3C4C" stroke-width="2" stroke-miterlimit="10"/>
<path d="M316.575 329.139L306.751 331.771L309.382 321.946L316.575 329.139Z" fill="#0C3C4C"/>
<path d="M337.442 308.271L340.074 298.447L330.25 301.079L337.442 308.271Z" fill="#0C3C4C"/>
<path d="M289.311 252.235H320.719" stroke="#0C3C4C" stroke-width="2" stroke-miterlimit="10"/>
<path d="M319.23 257.321L328.038 252.236L319.23 247.15V257.321Z" fill="#0C3C4C"/>
</svg>
