<svg width="197" height="64" viewBox="0 0 197 64" fill="none" xmlns="http://www.w3.org/2000/svg">
<rect width="64" height="64" rx="5" fill="#09EAB4"/>
<path d="M21.921 12L12 21.9361L20.304 30.2648L23.234 27.3425L17.8359 21.9361L21.921 17.8447L36.0608 31.9939L33.7629 34.2953L36.6809 37.2177L41.9088 32.0061L21.921 12ZM43.6839 33.7473L40.7538 36.6575L46.1641 42.0761L42.079 46.1553L27.9392 31.9939L30.2371 29.6925L27.3191 26.7702L22.0912 31.9696L22.1033 31.9939L42.079 52L52 42.0639L43.6839 33.7473Z" fill="#0C3C4C"/>
<path d="M21.921 46.1553L17.8359 42.0639L23.234 36.6575L20.3283 33.723L12 42.0639L21.921 52L30.2371 43.6712L27.3191 40.7489L21.921 46.1553ZM52 21.9361L42.079 12L33.7751 20.3288L36.6808 23.2511L42.079 17.8447L46.1641 21.9361L40.7781 27.3303L43.6839 30.2527V30.2648L52 21.9361Z" fill="#0C3C4C"/>
<path d="M95 30.9642C95 28.4363 94.3525 18.5 87.2662 18.5C80.8633 18.5 80 27.7692 80 30.9291C80 39.3205 81.7986 45.5 87.2662 45.5C94.4604 45.5 95 34.686 95 30.9642ZM90.2158 30.9291C90.2158 33.2113 90.5036 41.6027 87.2662 41.6027C84.5324 41.6027 84.5683 33.5975 84.5683 30.9291C84.5683 29.4545 84.5324 22.6079 87.2662 22.6079C90.2518 22.6079 90.2158 28.9278 90.2158 30.9291Z" fill="#09EAB4"/>
<path d="M105.697 18.5L99 25.2068L104.605 30.8288L106.583 28.8562L102.939 25.2068L105.697 22.4452L115.241 31.9959L113.69 33.5493L115.66 35.5219L119.188 32.0041L105.697 18.5ZM120.387 33.1795L118.409 35.1438L122.061 38.8014L119.303 41.5548L109.759 31.9959L111.31 30.4425L109.34 28.4699L105.812 31.9795L105.82 31.9959L119.303 45.5L126 38.7931L120.387 33.1795ZM105.697 41.5548L102.939 38.7931L106.583 35.1438L104.622 33.163L99 38.7931L105.697 45.5L111.31 39.8781L109.34 37.9055L105.697 41.5548ZM126 25.2068L119.303 18.5L113.698 24.1219L115.66 26.0945L119.303 22.4452L122.061 25.2068L118.425 28.8479L120.387 30.8205V30.8288L126 25.2068Z" fill="#09EAB4"/>
<path d="M130.032 21.4395C130.032 23.1815 129.96 41.9073 130.032 43.5766C130.069 43.9758 130.069 44.375 130.069 44.7742C130.069 45.0645 130.25 45.246 130.504 45.3548C130.721 45.4274 131.012 45.5 131.229 45.5C132.281 45.3911 133.405 45.5 134.494 45.4637C136.38 45.6089 138.085 45.1734 139.717 44.3024C141.24 43.4315 142.074 41.871 142.655 40.2379C143.126 38.8589 143.054 37.2258 142.8 35.8105C142.582 34.5403 142.002 33.3065 141.24 32.2903C141.131 32.1452 139.572 31.1653 139.644 31.0927C140.587 29.75 141.929 28.625 142.111 26.9556C142.256 25.504 141.929 24.0161 141.422 22.6734C141.095 21.8024 140.66 20.9677 139.971 20.3145C138.81 19.2258 137.069 18.754 135.546 18.6089C133.986 18.4637 132.535 18.5726 130.975 18.5C130.431 18.5 130.177 18.7177 130.177 19.2984C130.177 20.0605 130.032 20.6774 130.032 21.4395ZM134.494 28.0444C134.457 27.6452 134.494 24.4516 134.421 23.254C134.385 22.8185 134.639 22.6008 135.11 22.7097C135.473 22.7823 135.763 22.8185 136.053 23.0363C136.96 23.7258 137.649 24.5605 137.686 25.7218C137.686 26.3024 137.686 26.8831 137.468 27.4274C137.214 28.0806 136.851 28.5887 136.198 28.9153C135.763 29.1331 135.364 29.3871 134.929 29.5686C134.711 29.6411 134.494 29.5323 134.457 29.3145C134.457 28.879 134.494 28.0444 134.494 28.0444ZM138.121 37.6613C138.121 37.8427 138.085 38.1694 138.085 38.496C138.048 39.5847 136.634 40.9637 135.001 41C134.893 41 134.711 40.8911 134.675 40.7823C134.602 40.5645 134.53 40.3105 134.53 40.0565C134.494 38.9315 134.53 37.8427 134.53 36.6452C134.639 35.8831 134.566 35.0847 134.566 34.2863C134.602 33.6694 134.748 33.5605 135.328 33.4516C136.198 33.3427 136.996 33.7056 137.395 34.3952C137.867 35.2298 138.048 36.1371 138.121 37.0806V37.6613Z" fill="#09EAB4"/>
<path d="M150.3 45.4546C150.408 45.4909 150.733 45.4909 151.057 45.4909C151.778 45.4909 151.995 42.8754 152.067 42.3305C152.103 41.8946 152.211 41.8582 152.572 41.7856C154.375 41.5676 155.276 41.7129 157.079 41.7492C157.476 41.7492 157.692 41.9309 157.8 42.2578L158.052 43.0933C158.269 43.7109 158.449 44.4738 158.665 45.0913C158.81 45.5272 158.846 45.4909 159.278 45.4909C159.855 45.4909 161.947 45.4909 162.56 45.4546C163.389 45.4546 162.812 43.7472 162.704 43.4566C162.379 42.4395 162.307 41.386 161.983 40.3688C161.839 39.9329 157.728 20.28 157.548 19.1902C157.295 18.5363 157.512 18.5 156.935 18.5C155.709 18.5 154.411 18.5727 153.149 18.5C152.644 18.5 152.68 18.6453 152.608 19.1902C152.536 19.6988 151.237 25.4748 150.733 27.8723C150.084 30.8875 149.507 33.7936 148.786 36.7725C148.533 37.8259 146.802 45.4183 147.019 45.4546C147.127 45.5272 147.307 45.4909 147.451 45.4909C148.353 45.4909 149.182 45.4909 150.3 45.4546ZM155.024 37.2084H154.266C153.257 37.2084 153.221 37.2084 153.473 36.1549C153.653 35.3557 154.627 31.0328 154.843 29.9793C154.879 29.9067 154.951 29.834 154.988 29.834C155.06 29.834 155.132 29.9067 155.168 29.943C155.312 30.3789 155.456 31.4687 155.601 31.9046C155.925 33.2851 156.141 34.4475 156.466 35.9369C156.79 37.2447 156.646 37.2447 155.997 37.2447C155.673 37.2447 155.348 37.2084 155.024 37.2084Z" fill="#09EAB4"/>
<path d="M174.711 18.5045C173.993 18.54 173.274 18.6466 172.556 18.8597C171.007 19.357 169.608 20.3517 168.663 21.6304C167.832 22.8027 167.492 24.188 167.378 25.5734C167.303 26.639 167.416 27.7402 167.945 28.6993C168.512 29.7294 169.495 30.6175 170.326 31.47C171.082 32.2159 171.838 32.9619 172.67 33.6368C173.426 34.3117 174.295 34.8446 175.051 35.555C176.147 36.5851 176.563 38.9296 175.769 40.2084C174.824 41.6292 172.594 41.8424 171.12 41.3806C170.364 41.1319 169.684 40.5991 169.041 40.1728C168.663 39.9242 168.21 39.8176 167.945 40.2439C167.794 40.457 167.719 40.7057 167.643 40.9188C167.378 41.8068 167.038 42.6238 167 43.5829C166.963 44.6841 169.193 45.0038 170.024 45.1814C173.728 45.9984 178.188 45.359 180.115 41.9134C180.493 41.203 180.758 40.457 180.909 39.6755C180.947 39.3913 180.985 39.1427 180.985 38.8585C181.136 36.5851 180.153 34.6669 178.679 32.9619C177.092 31.1148 175.089 29.836 173.237 28.2375C172.103 27.2429 171.687 25.6799 172.027 24.2591C172.367 22.7316 174.219 22.3409 175.618 22.7316C176.034 22.8382 176.374 23.0158 176.752 23.2289C176.978 23.3355 177.205 23.4776 177.508 23.4776C178.037 23.5131 178.112 23.1224 178.226 22.7316C178.49 21.8436 178.944 21.1331 179.133 20.2806C179.322 19.3215 178.49 19.1439 177.659 18.8953C176.676 18.6466 175.731 18.469 174.711 18.5045Z" fill="#09EAB4"/>
<path d="M185.054 38.4269H185.016C185.016 39.3311 184.979 40.2714 185.016 41.2116C185.054 42.3689 185.128 43.5262 185.202 44.6835C185.202 45.0813 185.313 45.1898 185.684 45.2621C186.463 45.443 187.205 45.4791 187.984 45.4791C189.986 45.4068 191.989 45.5515 193.992 45.4791C194.808 45.443 195.179 45.5153 195.995 45.3706C196.736 45.226 196.996 44.8282 196.996 43.7432C196.922 43.0561 196.959 42.7667 196.959 41.9349C196.959 40.7415 196.106 40.3437 195.364 40.3798C194.845 40.416 192.36 40.3437 191.359 40.3437C189.69 40.3798 189.949 40.5968 189.949 38.8971C189.949 37.5228 189.986 35.7507 189.986 34.3403C189.986 33.5808 190.061 33.3277 190.802 33.3277H195.438C196.18 33.4362 196.699 32.9299 196.699 32.1704C196.699 31.4109 196.774 31.3748 196.774 30.6153L196.662 29.5303C196.588 28.9155 196.366 28.6985 195.735 28.6985C195.327 28.6985 194.919 28.7347 194.511 28.7709C192.916 28.8794 192.175 28.6624 190.617 28.7709C190.098 28.7709 190.023 28.6985 189.986 28.2284C189.838 26.818 189.986 25.2629 190.135 23.8524C190.172 23.2738 190.32 23.1653 190.876 23.1291L196.106 23.093C196.811 23.0206 197.033 23.0568 196.996 22.3697C196.922 21.3209 197.033 20.2359 196.922 19.1871C196.848 18.6085 196.662 18.5 195.995 18.5C194.882 18.5362 194.622 18.5362 193.51 18.6085C192.397 18.6447 187.946 18.6447 186.871 18.6447C185.313 18.6447 185.202 18.5362 185.165 20.3806C185.091 21.8272 185.128 23.3099 185.128 24.7927C185.128 27.3243 184.979 36.4017 185.054 38.4269Z" fill="#09EAB4"/>
</svg>
