<svg width="69" height="96" viewBox="0 0 69 96" fill="none" xmlns="http://www.w3.org/2000/svg">
<path d="M60.9082 25.125C62.2832 30.5 62.4082 34.5 60.9082 38.75C59.6582 42.75 58.1582 45.5 54.2832 45.5H34.2832V47.125H47.5332V52.25C47.5332 56.125 44.2832 58.125 40.9082 59C35.9082 60.5 31.7832 60.25 27.5332 59C24.0332 58 20.9082 55.875 20.9082 52.25V39.5C20.9082 35.875 23.9082 32.75 27.5332 32.75H40.9082C45.4082 32.75 49.2832 28.875 49.2832 24.25V18.375H54.2832C58.1582 18.375 60.0332 21.25 60.9082 25.125ZM41.7832 50.5C40.4082 50.5 39.2832 51.625 39.2832 53.125C39.2832 54.5 40.4082 55.625 41.7832 55.625C43.1582 55.625 44.2832 54.5 44.2832 53.125C44.2832 51.75 43.1582 50.5 41.7832 50.5ZM26.9082 31.125C22.4082 31.125 18.6582 35 18.6582 39.375V45.5H14.0332C10.1582 45.5 7.9082 42.625 6.9082 38.75C5.6582 33.375 5.6582 30.25 6.9082 25.125C8.0332 20.625 11.4082 18.375 15.2832 18.375H33.6582V16.625H20.2832V11.5C20.2832 7.75 21.2832 5.625 26.9082 4.625C30.9082 3.875 35.7832 3.875 40.2832 4.625C43.9082 5.25 47.0332 7.875 47.0332 11.5V24.25C47.0332 28 44.0332 31.125 40.2832 31.125H26.9082ZM26.1582 13.25C27.5332 13.25 28.6582 12.125 28.6582 10.75C28.6582 9.25 27.5332 8.125 26.1582 8.125C24.7832 8.125 23.6582 9.25 23.6582 10.75C23.6582 12.125 24.7832 13.25 26.1582 13.25Z" fill="#09EAB4"/>
<path d="M1.7152 91V76.4545H6.89986C8.03149 76.4545 8.96899 76.6605 9.71236 77.0724C10.4557 77.4844 11.0121 78.0478 11.3814 78.7628C11.7507 79.473 11.9354 80.2732 11.9354 81.1634C11.9354 82.0582 11.7483 82.8632 11.3743 83.5781C11.005 84.2884 10.4463 84.8518 9.69815 85.2685C8.95478 85.6804 8.01965 85.8864 6.89276 85.8864H3.32741V84.0256H6.69389C7.40885 84.0256 7.98887 83.9025 8.43395 83.6562C8.87902 83.4053 9.20573 83.0644 9.41406 82.6335C9.6224 82.2027 9.72656 81.7126 9.72656 81.1634C9.72656 80.6141 9.6224 80.1264 9.41406 79.7003C9.20573 79.2741 8.87666 78.9403 8.42685 78.6989C7.98177 78.4574 7.39465 78.3366 6.66548 78.3366H3.9098V91H1.7152ZM15.68 95.0909C15.3628 95.0909 15.074 95.0649 14.8136 95.0128C14.5531 94.9654 14.359 94.9134 14.2312 94.8565L14.7425 93.1165C15.1308 93.2206 15.4764 93.2656 15.7795 93.2514C16.0825 93.2372 16.35 93.1236 16.582 92.9105C16.8188 92.6974 17.0271 92.3494 17.207 91.8665L17.4698 91.142L13.4783 80.0909H15.7511L18.5138 88.5568H18.6275L21.3903 80.0909H23.6701L19.1744 92.456C18.966 93.0241 18.7009 93.5047 18.3789 93.8977C18.0569 94.2955 17.6734 94.5938 17.2283 94.7926C16.7833 94.9915 16.2672 95.0909 15.68 95.0909ZM30.7582 80.0909V81.7955H24.7994V80.0909H30.7582ZM26.3974 77.4773H28.521V87.7969C28.521 88.2088 28.5825 88.5189 28.7056 88.7273C28.8287 88.9309 28.9873 89.0705 29.1815 89.1463C29.3803 89.2173 29.5958 89.2528 29.8278 89.2528C29.9982 89.2528 30.1474 89.241 30.2752 89.2173C30.4031 89.1937 30.5025 89.1747 30.5735 89.1605L30.957 90.9148C30.8339 90.9621 30.6587 91.0095 30.4315 91.0568C30.2042 91.1089 29.9201 91.1373 29.5792 91.142C29.0205 91.1515 28.4996 91.0521 28.0167 90.8438C27.5337 90.6354 27.1431 90.3134 26.8448 89.8778C26.5465 89.4422 26.3974 88.8954 26.3974 88.2372V77.4773ZM35.4652 84.5227V91H33.3416V76.4545H35.4368V81.8665H35.5717C35.8274 81.2794 36.218 80.813 36.7436 80.4673C37.2692 80.1217 37.9557 79.9489 38.8033 79.9489C39.5514 79.9489 40.2048 80.1027 40.7635 80.4105C41.3269 80.7183 41.7625 81.1776 42.0703 81.7884C42.3828 82.3944 42.5391 83.152 42.5391 84.0611V91H40.4155V84.3168C40.4155 83.5166 40.2095 82.8963 39.7976 82.456C39.3857 82.0109 38.8127 81.7884 38.0788 81.7884C37.5769 81.7884 37.1271 81.8949 36.7294 82.108C36.3364 82.321 36.0263 82.6335 35.799 83.0455C35.5765 83.4527 35.4652 83.9451 35.4652 84.5227ZM49.968 91.2202C48.9453 91.2202 48.0528 90.9858 47.2905 90.517C46.5282 90.0483 45.9363 89.3925 45.5149 88.5497C45.0935 87.7069 44.8828 86.7221 44.8828 85.5952C44.8828 84.4635 45.0935 83.474 45.5149 82.6264C45.9363 81.7789 46.5282 81.1207 47.2905 80.652C48.0528 80.1832 48.9453 79.9489 49.968 79.9489C50.9908 79.9489 51.8833 80.1832 52.6456 80.652C53.4079 81.1207 53.9998 81.7789 54.4212 82.6264C54.8426 83.474 55.0533 84.4635 55.0533 85.5952C55.0533 86.7221 54.8426 87.7069 54.4212 88.5497C53.9998 89.3925 53.4079 90.0483 52.6456 90.517C51.8833 90.9858 50.9908 91.2202 49.968 91.2202ZM49.9751 89.4375C50.638 89.4375 51.1873 89.2623 51.6229 88.9119C52.0585 88.5616 52.3804 88.0952 52.5888 87.5128C52.8018 86.9304 52.9084 86.2888 52.9084 85.5881C52.9084 84.892 52.8018 84.2528 52.5888 83.6705C52.3804 83.0833 52.0585 82.6122 51.6229 82.2571C51.1873 81.902 50.638 81.7244 49.9751 81.7244C49.3075 81.7244 48.7536 81.902 48.3132 82.2571C47.8776 82.6122 47.5533 83.0833 47.3402 83.6705C47.1319 84.2528 47.0277 84.892 47.0277 85.5881C47.0277 86.2888 47.1319 86.9304 47.3402 87.5128C47.5533 88.0952 47.8776 88.5616 48.3132 88.9119C48.7536 89.2623 49.3075 89.4375 49.9751 89.4375ZM59.5472 84.5227V91H57.4237V80.0909H59.462V81.8665H59.5969C59.8479 81.2888 60.2409 80.8248 60.7759 80.4744C61.3157 80.1241 61.9951 79.9489 62.8143 79.9489C63.5576 79.9489 64.2087 80.1051 64.7674 80.4176C65.3261 80.7254 65.7594 81.1847 66.0671 81.7955C66.3749 82.4062 66.5288 83.1615 66.5288 84.0611V91H64.4052V84.3168C64.4052 83.526 64.1992 82.9081 63.7873 82.4631C63.3754 82.0133 62.8095 81.7884 62.0898 81.7884C61.5974 81.7884 61.1594 81.8949 60.7759 82.108C60.3971 82.321 60.0965 82.6335 59.8739 83.0455C59.6561 83.4527 59.5472 83.9451 59.5472 84.5227Z" fill="#09EAB4"/>
</svg>
