<svg width="64" height="96" viewBox="0 0 64 96" fill="none" xmlns="http://www.w3.org/2000/svg">
<path d="M52.25 22.25C59 24.5 64 28.25 64 32C64 36 58.75 39.875 51.5 42.25C51.125 42.375 50.75 42.5 50.375 42.625C50.5 43.125 50.625 43.75 50.75 44.25C52.125 51.5 51 57.375 47.625 59.375C44.375 61.25 39.125 59.375 33.75 54.75C33.125 54.25 32.625 53.75 32 53.25C31.625 53.625 31.125 54 30.75 54.375C25.25 59.25 19.5 61.25 16.125 59.25C12.875 57.375 11.875 51.875 13.125 45C13.375 44.25 13.5 43.5 13.625 42.75C13.125 42.625 12.5 42.375 12 42.25C5 39.875 0 35.875 0 32C0 28.25 4.75 24.625 11.375 22.25C12.125 22 12.875 21.75 13.75 21.5C13.5 20.875 13.375 20.125 13.25 19.5C11.875 12.375 12.875 6.75 16.125 4.875C19.5 2.875 25.25 5 31 10C31.25 10.375 31.625 10.625 32 11C32.5 10.5 33 10 33.5 9.625C39 4.875 44.375 2.875 47.625 4.75C51 6.75 52 12.75 50.5 20.125C50.375 20.625 50.25 21.125 50.25 21.625C50.875 21.75 51.5 22 52.25 22.25ZM35.25 11.625C34.75 12 34.375 12.5 33.875 12.875C35.75 15 37.5 17.25 39.125 19.625C42 19.875 44.75 20.25 47.625 20.875C47.75 20.5 47.75 20.125 47.875 19.625C49.25 13.25 48.375 8.25 46.25 7.125C44.25 6 40 7.5 35.25 11.625ZM20.875 38.5C20.25 37.375 19.625 36.375 19 35.25C18.25 37.125 17.625 39 17 40.75C18.875 41.25 20.875 41.5 22.875 41.75C22.125 40.625 21.5 39.625 20.875 38.5ZM17 23.5C17.625 25.25 18.25 27 19 28.875C19.625 27.75 20.25 26.75 20.875 25.625C21.5 24.625 22.125 23.5 22.75 22.5C20.75 22.75 18.875 23 17 23.5ZM20.5 32.125C21.375 33.75 22.25 35.5 23.125 37.125C24.125 38.75 25.125 40.375 26.25 42C28.125 42.125 30 42.25 32 42.25C33.875 42.25 35.875 42.125 37.75 42C38.75 40.375 39.75 38.75 40.75 37.125C41.75 35.5 42.625 33.75 43.375 32C42.625 30.25 41.625 28.625 40.75 27C39.75 25.375 38.75 23.75 37.625 22.125C35.875 22 33.875 21.875 32 21.875C30 21.875 28.125 22 26.25 22.125C25.125 23.75 24.125 25.375 23.125 27C22.25 28.625 21.25 30.375 20.5 32.125ZM43 38.5C42.375 39.5 41.75 40.625 41.125 41.625C43.125 41.5 45 41.125 47 40.625C46.375 38.75 45.625 37 44.875 35.125C44.25 36.25 43.75 37.375 43 38.5ZM44.875 28.875C45.625 27.125 46.25 25.375 46.875 23.5C45.125 23.125 43.125 22.75 41.125 22.5C41.75 23.5 42.375 24.625 43 25.625C43.625 26.75 44.25 27.75 44.875 28.875ZM32 14.875C30.75 16.25 29.5 17.75 28.25 19.375C30.75 19.25 33.25 19.25 35.625 19.375C34.5 17.75 33.25 16.25 32 14.875ZM17.5 7.125C15.5 8.375 14.75 12.875 15.875 18.875C16 19.625 16.125 20.25 16.375 20.875C19.125 20.25 21.875 19.875 24.75 19.625C26.375 17.25 28.125 15 30.125 12.875C29.75 12.625 29.5 12.375 29.125 12C24.25 7.75 19.625 6 17.5 7.125ZM14.375 40.125C15.25 37.375 16.25 34.625 17.5 32.125C16.375 29.5 15.25 26.875 14.5 24.125C13.75 24.375 13 24.5 12.25 24.75C6.625 26.75 2.625 29.75 2.625 32C2.875 33.5 3.75 34.875 5 35.75C7.125 37.5 10.25 38.75 12.875 39.625C13.375 39.875 13.875 40 14.375 40.125ZM29 52.375C29.375 52 29.75 51.625 30.125 51.25C28.25 49.125 26.375 46.875 24.75 44.625C21.875 44.375 19.125 44 16.25 43.375C16.125 44 16 44.75 15.875 45.5C14.75 51.375 15.5 55.75 17.5 57C19 57.5 20.5 57.5 21.875 56.75C24.5 55.75 26.875 54.25 29 52.375ZM32 49.375C33.375 47.875 34.625 46.375 35.75 44.75C34.5 44.875 33.25 44.875 32 44.875C30.75 44.875 29.5 44.875 28.25 44.75C29.5 46.5 30.75 48 32 49.375ZM48.375 53.125C48.75 50.375 48.625 47.5 48.125 44.75C48 44.25 47.875 43.75 47.75 43.25C44.875 43.875 42.125 44.375 39.25 44.625C37.625 47 35.875 49.125 33.875 51.25C34.5 51.75 35 52.25 35.5 52.75C40.125 56.625 44.375 58.125 46.375 57C47.5 56 48.25 54.625 48.375 53.125ZM50.625 39.625C56.875 37.625 61.25 34.375 61.25 32C61.25 29.75 57.125 26.75 51.375 24.75C50.75 24.5 50.125 24.375 49.5 24.125C48.625 26.875 47.625 29.5 46.375 32C47.625 34.625 48.75 37.25 49.625 40C50 39.875 50.25 39.75 50.625 39.625ZM32 37.75C28.75 37.75 26.25 35.25 26.25 32C26.25 28.875 28.75 26.375 32 26.375C35.125 26.375 37.625 28.875 37.625 32C37.625 35.25 35.125 37.75 32 37.75Z" fill="#09EAB4"/>
<path d="M6.26403 91V76.4545H11.4487C12.5756 76.4545 13.5107 76.6487 14.2541 77.0369C15.0022 77.4252 15.5609 77.9626 15.9302 78.6491C16.2995 79.331 16.4842 80.1193 16.4842 81.0142C16.4842 81.9044 16.2972 82.688 15.9231 83.3651C15.5538 84.0374 14.9951 84.5606 14.247 84.9347C13.5036 85.3087 12.5685 85.4957 11.4416 85.4957H7.51403V83.6065H11.2427C11.9529 83.6065 12.5306 83.5047 12.9757 83.3011C13.4255 83.0975 13.7546 82.8016 13.9629 82.4134C14.1712 82.0251 14.2754 81.5587 14.2754 81.0142C14.2754 80.465 14.1689 79.9891 13.9558 79.5866C13.7475 79.1842 13.4184 78.8764 12.9686 78.6634C12.5235 78.4455 11.9387 78.3366 11.2143 78.3366H8.45863V91H6.26403ZM13.4444 84.4375L17.0382 91H14.5382L11.0154 84.4375H13.4444ZM23.5492 91.2202C22.4744 91.2202 21.5487 90.9905 20.7722 90.5312C20.0004 90.0672 19.4038 89.4162 18.9824 88.5781C18.5658 87.7353 18.3574 86.7481 18.3574 85.6165C18.3574 84.4991 18.5658 83.5142 18.9824 82.6619C19.4038 81.8097 19.9909 81.1444 20.7438 80.6662C21.5014 80.188 22.3868 79.9489 23.4 79.9489C24.0156 79.9489 24.6122 80.0507 25.1898 80.2543C25.7675 80.4579 26.2859 80.7775 26.7452 81.2131C27.2045 81.6487 27.5667 82.2145 27.8319 82.9105C28.097 83.6018 28.2296 84.4422 28.2296 85.4318V86.1847H19.5577V84.5938H26.1486C26.1486 84.035 26.035 83.5402 25.8077 83.1094C25.5804 82.6738 25.2608 82.3305 24.8489 82.0795C24.4417 81.8286 23.9635 81.7031 23.4142 81.7031C22.8176 81.7031 22.2968 81.8499 21.8517 82.1435C21.4114 82.4323 21.0705 82.8111 20.829 83.2798C20.5923 83.7438 20.4739 84.2481 20.4739 84.7926V86.0355C20.4739 86.7647 20.6017 87.3849 20.8574 87.8963C21.1178 88.4077 21.4801 88.7983 21.9441 89.0682C22.4081 89.3333 22.9502 89.4659 23.5705 89.4659C23.973 89.4659 24.3399 89.4091 24.6713 89.2955C25.0028 89.1771 25.2892 89.0019 25.5307 88.7699C25.7722 88.5379 25.9569 88.2514 26.0847 87.9105L28.0946 88.2727C27.9337 88.8646 27.6448 89.383 27.2282 89.8281C26.8162 90.2685 26.2978 90.6117 25.6728 90.858C25.0525 91.0994 24.3446 91.2202 23.5492 91.2202ZM33.7605 91.2415C33.0692 91.2415 32.4442 91.1136 31.8855 90.858C31.3268 90.5975 30.8841 90.2211 30.5574 89.7287C30.2354 89.2363 30.0744 88.6326 30.0744 87.9176C30.0744 87.3021 30.1928 86.7955 30.4295 86.3977C30.6663 86 30.9859 85.6851 31.3883 85.4531C31.7908 85.2211 32.2406 85.0459 32.7377 84.9276C33.2349 84.8092 33.7415 84.7192 34.2576 84.6577C34.911 84.5819 35.4413 84.5204 35.8485 84.473C36.2557 84.4209 36.5517 84.3381 36.7363 84.2244C36.921 84.1108 37.0133 83.9261 37.0133 83.6705V83.6207C37.0133 83.0005 36.8381 82.5199 36.4877 82.179C36.1421 81.8381 35.626 81.6676 34.9395 81.6676C34.2245 81.6676 33.661 81.8262 33.2491 82.1435C32.8419 82.456 32.5602 82.804 32.4039 83.1875L30.4082 82.733C30.6449 82.0701 30.9906 81.535 31.4451 81.1278C31.9044 80.7159 32.4324 80.4176 33.0289 80.233C33.6255 80.0436 34.2529 79.9489 34.911 79.9489C35.3467 79.9489 35.8083 80.0009 36.296 80.1051C36.7884 80.2045 37.2477 80.3892 37.6738 80.6591C38.1047 80.929 38.4574 81.3149 38.7321 81.8168C39.0067 82.3139 39.144 82.9602 39.144 83.7557V91H37.0701V89.5085H36.9849C36.8476 89.7831 36.6416 90.053 36.367 90.3182C36.0924 90.5833 35.7396 90.8035 35.3088 90.9787C34.8779 91.1539 34.3618 91.2415 33.7605 91.2415ZM34.2221 89.5369C34.8092 89.5369 35.3111 89.4209 35.7278 89.1889C36.1492 88.9569 36.4688 88.6539 36.6866 88.2798C36.9092 87.901 37.0204 87.4962 37.0204 87.0653V85.6591C36.9447 85.7348 36.7979 85.8059 36.5801 85.8722C36.367 85.9337 36.1232 85.9882 35.8485 86.0355C35.5739 86.0781 35.3064 86.1184 35.046 86.1562C34.7856 86.1894 34.5678 86.2178 34.3926 86.2415C33.9806 86.2936 33.6042 86.3812 33.2633 86.5043C32.9271 86.6274 32.6573 86.8049 32.4537 87.0369C32.2548 87.2642 32.1554 87.5672 32.1554 87.946C32.1554 88.4716 32.3495 88.8693 32.7377 89.1392C33.126 89.4044 33.6208 89.5369 34.2221 89.5369ZM46.5676 91.2202C45.5118 91.2202 44.6027 90.9811 43.8404 90.5028C43.0828 90.0199 42.5004 89.3546 42.0932 88.5071C41.686 87.6596 41.4824 86.6889 41.4824 85.5952C41.4824 84.4872 41.6908 83.5095 42.1074 82.6619C42.5241 81.8097 43.1112 81.1444 43.8688 80.6662C44.6264 80.188 45.5189 79.9489 46.5463 79.9489C47.3749 79.9489 48.1136 80.1027 48.7623 80.4105C49.4109 80.7135 49.9341 81.1397 50.3319 81.6889C50.7343 82.2382 50.9734 82.8797 51.0492 83.6136H48.9824C48.8688 83.1023 48.6084 82.6619 48.2012 82.2926C47.7987 81.9233 47.2589 81.7386 46.5819 81.7386C45.99 81.7386 45.4715 81.8949 45.0265 82.2074C44.5861 82.5152 44.2428 82.9555 43.9966 83.5284C43.7504 84.0966 43.6273 84.7689 43.6273 85.5455C43.6273 86.3409 43.748 87.0275 43.9895 87.6051C44.231 88.1828 44.5719 88.6302 45.0123 88.9474C45.4573 89.2647 45.9805 89.4233 46.5819 89.4233C46.9843 89.4233 47.3489 89.3499 47.6756 89.2031C48.007 89.0516 48.284 88.8362 48.5066 88.5568C48.7338 88.2775 48.8925 87.9413 48.9824 87.5483H51.0492C50.9734 88.2538 50.7438 88.8835 50.3603 89.4375C49.9767 89.9915 49.463 90.4271 48.8191 90.7443C48.1799 91.0616 47.4294 91.2202 46.5676 91.2202ZM58.4125 80.0909V81.7955H52.4537V80.0909H58.4125ZM54.0517 77.4773H56.1752V87.7969C56.1752 88.2088 56.2368 88.5189 56.3599 88.7273C56.483 88.9309 56.6416 89.0705 56.8358 89.1463C57.0346 89.2173 57.2501 89.2528 57.4821 89.2528C57.6525 89.2528 57.8017 89.241 57.9295 89.2173C58.0574 89.1937 58.1568 89.1747 58.2278 89.1605L58.6113 90.9148C58.4882 90.9621 58.313 91.0095 58.0858 91.0568C57.8585 91.1089 57.5744 91.1373 57.2335 91.142C56.6748 91.1515 56.1539 91.0521 55.671 90.8438C55.188 90.6354 54.7974 90.3134 54.4991 89.8778C54.2008 89.4422 54.0517 88.8954 54.0517 88.2372V77.4773Z" fill="#09EAB4"/>
</svg>
