<svg width="72" height="96" viewBox="0 0 72 96" fill="none" xmlns="http://www.w3.org/2000/svg">
<path d="M54.4374 16.536L46.424 3.34663C46.176 2.92529 45.7254 2.66663 45.2374 2.66663H27.568C27.08 2.66663 26.6267 2.92529 26.3814 3.34663L17.5627 18.4026C17.312 18.832 17.312 19.3626 17.5627 19.792L25.5014 33.9173C26.032 34.824 27.344 34.824 27.8747 33.9173L35.816 19.3466C36.064 18.9253 36.5147 18.6666 37.0027 18.6666L53.248 18.6053C54.312 18.6053 54.9734 17.4506 54.4374 16.536ZM26.5787 61.264H44.248C44.736 61.264 45.1867 61.0053 45.4347 60.584L54.44 45.48C54.6907 45.0506 54.6907 44.52 54.44 44.0906L46.3147 30.0133C45.784 29.1066 44.472 29.1066 43.9414 30.0133L36 44.584C35.7547 45.0053 35.304 45.2933 34.816 45.2933H18.7547C17.6934 45.2933 17.0294 46.4186 17.5654 47.3333L25.392 60.584C25.64 61.0053 26.0907 61.264 26.5787 61.264Z" fill="#09EAB4"/>
<path d="M9.95508 80.2756C9.87932 79.6032 9.56682 79.0824 9.01758 78.7131C8.46834 78.339 7.77705 78.152 6.94371 78.152C6.34712 78.152 5.83103 78.2467 5.39542 78.4361C4.95981 78.6207 4.62127 78.8764 4.37979 79.2031C4.14305 79.5251 4.02468 79.892 4.02468 80.304C4.02468 80.6496 4.10517 80.9479 4.26616 81.1989C4.43188 81.4498 4.64731 81.6605 4.91246 81.831C5.18235 81.9967 5.47118 82.1364 5.77894 82.25C6.08671 82.3589 6.38263 82.4489 6.66673 82.5199L8.08718 82.8892C8.5512 83.0028 9.02705 83.1567 9.51474 83.3509C10.0024 83.545 10.4546 83.8007 10.8713 84.1179C11.2879 84.4351 11.6241 84.8281 11.8798 85.2969C12.1402 85.7656 12.2704 86.3267 12.2704 86.9801C12.2704 87.804 12.0574 88.5355 11.6312 89.1747C11.2098 89.8139 10.5967 90.3182 9.79173 90.6875C8.99154 91.0568 8.02326 91.2415 6.8869 91.2415C5.79788 91.2415 4.85565 91.0687 4.06019 90.723C3.26474 90.3774 2.6421 89.8873 2.19229 89.2528C1.74248 88.6136 1.4939 87.8561 1.44656 86.9801H3.64826C3.69087 87.5057 3.86133 87.9437 4.15962 88.294C4.46265 88.6397 4.84854 88.8977 5.31729 89.0682C5.79078 89.2339 6.30924 89.3168 6.87269 89.3168C7.49296 89.3168 8.04457 89.2197 8.52752 89.0256C9.01521 88.8267 9.39873 88.5521 9.67809 88.2017C9.95745 87.8466 10.0971 87.4323 10.0971 86.9588C10.0971 86.5279 9.97402 86.1752 9.72781 85.9006C9.48633 85.6259 9.15726 85.3987 8.74059 85.2188C8.32866 85.0388 7.86228 84.8802 7.34144 84.7429L5.62269 84.2741C4.45792 83.9569 3.53462 83.4905 2.85281 82.875C2.17572 82.2595 1.83718 81.4451 1.83718 80.4318C1.83718 79.5937 2.06445 78.8622 2.519 78.2372C2.97354 77.6122 3.58907 77.1269 4.36559 76.7812C5.1421 76.4309 6.01805 76.2557 6.99343 76.2557C7.97828 76.2557 8.84712 76.4285 9.59996 76.7741C10.3575 77.1198 10.9541 77.5956 11.3897 78.2017C11.8253 78.803 12.0526 79.4943 12.0716 80.2756H9.95508ZM19.3176 91.2202C18.2949 91.2202 17.4024 90.9858 16.6401 90.517C15.8778 90.0483 15.2859 89.3925 14.8645 88.5497C14.4431 87.7069 14.2324 86.7221 14.2324 85.5952C14.2324 84.4635 14.4431 83.474 14.8645 82.6264C15.2859 81.7789 15.8778 81.1207 16.6401 80.652C17.4024 80.1832 18.2949 79.9489 19.3176 79.9489C20.3404 79.9489 21.2329 80.1832 21.9952 80.652C22.7575 81.1207 23.3494 81.7789 23.7708 82.6264C24.1922 83.474 24.4029 84.4635 24.4029 85.5952C24.4029 86.7221 24.1922 87.7069 23.7708 88.5497C23.3494 89.3925 22.7575 90.0483 21.9952 90.517C21.2329 90.9858 20.3404 91.2202 19.3176 91.2202ZM19.3248 89.4375C19.9876 89.4375 20.5369 89.2623 20.9725 88.9119C21.4081 88.5616 21.7301 88.0952 21.9384 87.5128C22.1515 86.9304 22.258 86.2888 22.258 85.5881C22.258 84.892 22.1515 84.2528 21.9384 83.6705C21.7301 83.0833 21.4081 82.6122 20.9725 82.2571C20.5369 81.902 19.9876 81.7244 19.3248 81.7244C18.6571 81.7244 18.1032 81.902 17.6628 82.2571C17.2272 82.6122 16.9029 83.0833 16.6898 83.6705C16.4815 84.2528 16.3773 84.892 16.3773 85.5881C16.3773 86.2888 16.4815 86.9304 16.6898 87.5128C16.9029 88.0952 17.2272 88.5616 17.6628 88.9119C18.1032 89.2623 18.6571 89.4375 19.3248 89.4375ZM28.8968 76.4545V91H26.7733V76.4545H28.8968ZM31.7537 91V80.0909H33.8773V91H31.7537ZM32.8262 78.4077C32.4569 78.4077 32.1396 78.2846 31.8745 78.0384C31.6141 77.7874 31.4838 77.4891 31.4838 77.1435C31.4838 76.7931 31.6141 76.4948 31.8745 76.2486C32.1396 75.9976 32.4569 75.8722 32.8262 75.8722C33.1955 75.8722 33.5104 75.9976 33.7708 76.2486C34.0359 76.4948 34.1685 76.7931 34.1685 77.1435C34.1685 77.4891 34.0359 77.7874 33.7708 78.0384C33.5104 78.2846 33.1955 78.4077 32.8262 78.4077ZM40.818 91.2131C39.9373 91.2131 39.1513 90.9882 38.46 90.5384C37.7735 90.0838 37.2337 89.4375 36.8407 88.5994C36.4525 87.7566 36.2583 86.7457 36.2583 85.5668C36.2583 84.3878 36.4548 83.3793 36.8478 82.5412C37.2456 81.7031 37.7901 81.0616 38.4814 80.6165C39.1726 80.1714 39.9563 79.9489 40.8322 79.9489C41.5093 79.9489 42.0538 80.0625 42.4657 80.2898C42.8824 80.5123 43.2044 80.7727 43.4316 81.071C43.6636 81.3693 43.8436 81.6321 43.9714 81.8594H44.0993V76.4545H46.2228V91H44.149V89.3026H43.9714C43.8436 89.5346 43.6589 89.7997 43.4174 90.098C43.1807 90.3963 42.854 90.6567 42.4373 90.8793C42.0207 91.1018 41.4809 91.2131 40.818 91.2131ZM41.2868 89.402C41.8975 89.402 42.4136 89.241 42.835 88.919C43.2612 88.5923 43.5832 88.1402 43.801 87.5625C44.0235 86.9848 44.1348 86.3125 44.1348 85.5455C44.1348 84.7879 44.0259 84.125 43.8081 83.5568C43.5903 82.9886 43.2707 82.5459 42.8493 82.2287C42.4279 81.9115 41.907 81.7528 41.2868 81.7528C40.6475 81.7528 40.1149 81.9186 39.6887 82.25C39.2626 82.5814 38.9406 83.0336 38.7228 83.6065C38.5098 84.1795 38.4032 84.8258 38.4032 85.5455C38.4032 86.2746 38.5121 86.9304 38.7299 87.5128C38.9477 88.0952 39.2697 88.5568 39.6958 88.8977C40.1267 89.2339 40.657 89.402 41.2868 89.402ZM49.2537 91V80.0909H51.3773V91H49.2537ZM50.3262 78.4077C49.9569 78.4077 49.6396 78.2846 49.3745 78.0384C49.1141 77.7874 48.9838 77.4891 48.9838 77.1435C48.9838 76.7931 49.1141 76.4948 49.3745 76.2486C49.6396 75.9976 49.9569 75.8722 50.3262 75.8722C50.6955 75.8722 51.0104 75.9976 51.2708 76.2486C51.5359 76.4948 51.6685 76.7931 51.6685 77.1435C51.6685 77.4891 51.5359 77.7874 51.2708 78.0384C51.0104 78.2846 50.6955 78.4077 50.3262 78.4077ZM59.3265 80.0909V81.7955H53.3677V80.0909H59.3265ZM54.9657 77.4773H57.0893V87.7969C57.0893 88.2088 57.1509 88.5189 57.274 88.7273C57.3971 88.9309 57.5557 89.0705 57.7498 89.1463C57.9487 89.2173 58.1641 89.2528 58.3961 89.2528C58.5666 89.2528 58.7157 89.241 58.8436 89.2173C58.9714 89.1937 59.0708 89.1747 59.1419 89.1605L59.5254 90.9148C59.4023 90.9621 59.2271 91.0095 58.9998 91.0568C58.7725 91.1089 58.4885 91.1373 58.1475 91.142C57.5888 91.1515 57.068 91.0521 56.585 90.8438C56.1021 90.6354 55.7115 90.3134 55.4132 89.8778C55.1149 89.4422 54.9657 88.8954 54.9657 88.2372V77.4773ZM63.0179 95.0909C62.7007 95.0909 62.4119 95.0649 62.1515 95.0128C61.891 94.9654 61.6969 94.9134 61.5691 94.8565L62.0804 93.1165C62.4687 93.2206 62.8143 93.2656 63.1174 93.2514C63.4204 93.2372 63.6879 93.1236 63.9199 92.9105C64.1567 92.6974 64.365 92.3494 64.5449 91.8665L64.8077 91.142L60.8162 80.0909H63.089L65.8517 88.5568H65.9654L68.7282 80.0909H71.008L66.5123 92.456C66.3039 93.0241 66.0388 93.5047 65.7168 93.8977C65.3948 94.2955 65.0113 94.5938 64.5662 94.7926C64.1212 94.9915 63.6051 95.0909 63.0179 95.0909Z" fill="#09EAB4"/>
</svg>
