<svg width="103" height="96" viewBox="0 0 103 96" fill="none" xmlns="http://www.w3.org/2000/svg">
<path d="M81.5094 0H20.557C19.7143 0 19.0332 0.682667 19.0332 1.52381V62.4762C19.0332 63.3173 19.7143 64 20.557 64H81.5094C82.3521 64 83.0332 63.3173 83.0332 62.4762V1.52381C83.0332 0.682667 82.3521 0 81.5094 0ZM57.1284 34.2019H49.5094V57.9048H43.4142V34.2019H35.7951V28.9524H57.1284V34.2019ZM58.8366 56.5516V50.2156C58.8366 50.2156 62.2972 52.8244 66.4496 52.8244C70.602 52.8244 70.442 50.109 70.442 49.7371C70.442 45.7966 58.6766 45.7966 58.6766 37.0667C58.6766 25.1947 75.8195 29.8789 75.8195 29.8789L75.6062 35.523C75.6062 35.523 72.7307 33.6061 69.4835 33.6061C66.2363 33.6061 65.0644 35.1497 65.0644 36.8C65.0644 41.059 76.9364 40.6339 76.9364 49.2053C76.938 62.4076 58.8366 56.5516 58.8366 56.5516Z" fill="#09EAB4"/>
<path d="M1.06428 78.3438V76.4545H12.3214V78.3438H7.78303V91H5.59553V78.3438H1.06428ZM14.7308 95.0909C14.4136 95.0909 14.1248 95.0649 13.8643 95.0128C13.6039 94.9654 13.4098 94.9134 13.282 94.8565L13.7933 93.1165C14.1816 93.2206 14.5272 93.2656 14.8303 93.2514C15.1333 93.2372 15.4008 93.1236 15.6328 92.9105C15.8696 92.6974 16.0779 92.3494 16.2578 91.8665L16.5206 91.142L12.5291 80.0909H14.8018L17.5646 88.5568H17.6783L20.4411 80.0909H22.7209L18.2251 92.456C18.0168 93.0241 17.7517 93.5047 17.4297 93.8977C17.1077 94.2955 16.7242 94.5938 16.2791 94.7926C15.834 94.9915 15.3179 95.0909 14.7308 95.0909ZM24.7166 95.0909V80.0909H26.7905V81.8594H26.968C27.0911 81.6321 27.2687 81.3693 27.5007 81.071C27.7327 80.7727 28.0547 80.5123 28.4666 80.2898C28.8786 80.0625 29.4231 79.9489 30.1001 79.9489C30.9808 79.9489 31.7668 80.1714 32.4581 80.6165C33.1494 81.0616 33.6915 81.7031 34.0845 82.5412C34.4822 83.3793 34.6811 84.3878 34.6811 85.5668C34.6811 86.7457 34.4846 87.7566 34.0916 88.5994C33.6986 89.4375 33.1589 90.0838 32.4723 90.5384C31.7857 90.9882 31.0021 91.2131 30.1214 91.2131C29.4586 91.2131 28.9164 91.1018 28.495 90.8793C28.0784 90.6567 27.7517 90.3963 27.5149 90.098C27.2782 89.7997 27.0959 89.5346 26.968 89.3026H26.8402V95.0909H24.7166ZM26.7976 85.5455C26.7976 86.3125 26.9089 86.9848 27.1314 87.5625C27.3539 88.1402 27.6759 88.5923 28.0973 88.919C28.5187 89.241 29.0348 89.402 29.6456 89.402C30.2801 89.402 30.8104 89.2339 31.2365 88.8977C31.6626 88.5568 31.9846 88.0952 32.2024 87.5128C32.425 86.9304 32.5362 86.2746 32.5362 85.5455C32.5362 84.8258 32.4273 84.1795 32.2095 83.6065C31.9964 83.0336 31.6745 82.5814 31.2436 82.25C30.8175 81.9186 30.2848 81.7528 29.6456 81.7528C29.0301 81.7528 28.5092 81.9115 28.0831 82.2287C27.6617 82.5459 27.3421 82.9886 27.1243 83.5568C26.9065 84.125 26.7976 84.7879 26.7976 85.5455ZM41.7621 91.2202C40.6873 91.2202 39.7616 90.9905 38.9851 90.5312C38.2133 90.0672 37.6167 89.4162 37.1953 88.5781C36.7786 87.7353 36.5703 86.7481 36.5703 85.6165C36.5703 84.4991 36.7786 83.5142 37.1953 82.6619C37.6167 81.8097 38.2038 81.1444 38.9567 80.6662C39.7143 80.188 40.5997 79.9489 41.6129 79.9489C42.2285 79.9489 42.825 80.0507 43.4027 80.2543C43.9804 80.4579 44.4988 80.7775 44.9581 81.2131C45.4174 81.6487 45.7796 82.2145 46.0447 82.9105C46.3099 83.6018 46.4425 84.4422 46.4425 85.4318V86.1847H37.7706V84.5938H44.3615C44.3615 84.035 44.2479 83.5402 44.0206 83.1094C43.7933 82.6738 43.4737 82.3305 43.0618 82.0795C42.6546 81.8286 42.1764 81.7031 41.6271 81.7031C41.0305 81.7031 40.5097 81.8499 40.0646 82.1435C39.6243 82.4323 39.2834 82.8111 39.0419 83.2798C38.8052 83.7438 38.6868 84.2481 38.6868 84.7926V86.0355C38.6868 86.7647 38.8146 87.3849 39.0703 87.8963C39.3307 88.4077 39.6929 88.7983 40.157 89.0682C40.621 89.3333 41.1631 89.4659 41.7834 89.4659C42.1858 89.4659 42.5528 89.4091 42.8842 89.2955C43.2157 89.1771 43.5021 89.0019 43.7436 88.7699C43.9851 88.5379 44.1697 88.2514 44.2976 87.9105L46.3075 88.2727C46.1465 88.8646 45.8577 89.383 45.4411 89.8281C45.0291 90.2685 44.5107 90.6117 43.8857 90.858C43.2654 91.0994 42.5575 91.2202 41.7621 91.2202ZM56.9734 82.7543L55.0487 83.0952C54.9682 82.849 54.8403 82.6146 54.6651 82.392C54.4947 82.1695 54.2627 81.9872 53.9691 81.8452C53.6755 81.7031 53.3086 81.6321 52.8683 81.6321C52.2669 81.6321 51.765 81.767 51.3626 82.0369C50.9601 82.3021 50.7589 82.6454 50.7589 83.0668C50.7589 83.4313 50.8938 83.7249 51.1637 83.9474C51.4336 84.17 51.8692 84.3523 52.4705 84.4943L54.2035 84.892C55.2073 85.1241 55.9554 85.4815 56.4478 85.9645C56.9402 86.4474 57.1864 87.0748 57.1864 87.8466C57.1864 88.5 56.997 89.0824 56.6183 89.5938C56.2442 90.1004 55.721 90.4981 55.0487 90.7869C54.381 91.0758 53.6069 91.2202 52.7262 91.2202C51.5046 91.2202 50.5079 90.9598 49.7362 90.4389C48.9644 89.9134 48.4909 89.1676 48.3157 88.2017L50.3683 87.8892C50.4961 88.4242 50.7589 88.8291 51.1566 89.1037C51.5543 89.3736 52.0728 89.5085 52.712 89.5085C53.408 89.5085 53.9644 89.3641 54.381 89.0753C54.7977 88.7817 55.006 88.4242 55.006 88.0028C55.006 87.6619 54.8782 87.3755 54.6225 87.1435C54.3716 86.9115 53.9857 86.7363 53.4648 86.6179L51.6183 86.2131C50.6003 85.9811 49.8474 85.6117 49.3597 85.1051C48.8768 84.5985 48.6353 83.9569 48.6353 83.1804C48.6353 82.5365 48.8152 81.973 49.1751 81.4901C49.5349 81.0071 50.0321 80.6307 50.6665 80.3608C51.301 80.0862 52.0278 79.9489 52.8469 79.9489C54.0259 79.9489 54.954 80.2045 55.631 80.7159C56.3081 81.2225 56.7556 81.902 56.9734 82.7543ZM64.1165 91.2202C63.0606 91.2202 62.1515 90.9811 61.3892 90.5028C60.6316 90.0199 60.0492 89.3546 59.642 88.5071C59.2348 87.6596 59.0312 86.6889 59.0312 85.5952C59.0312 84.4872 59.2396 83.5095 59.6562 82.6619C60.0729 81.8097 60.66 81.1444 61.4176 80.6662C62.1752 80.188 63.0677 79.9489 64.0952 79.9489C64.9238 79.9489 65.6624 80.1027 66.3111 80.4105C66.9598 80.7135 67.483 81.1397 67.8807 81.6889C68.2831 82.2382 68.5223 82.8797 68.598 83.6136H66.5312C66.4176 83.1023 66.1572 82.6619 65.75 82.2926C65.3475 81.9233 64.8078 81.7386 64.1307 81.7386C63.5388 81.7386 63.0204 81.8949 62.5753 82.2074C62.1349 82.5152 61.7917 82.9555 61.5455 83.5284C61.2992 84.0966 61.1761 84.7689 61.1761 85.5455C61.1761 86.3409 61.2969 87.0275 61.5384 87.6051C61.7798 88.1828 62.1207 88.6302 62.5611 88.9474C63.0062 89.2647 63.5294 89.4233 64.1307 89.4233C64.5331 89.4233 64.8977 89.3499 65.2244 89.2031C65.5559 89.0516 65.8329 88.8362 66.0554 88.5568C66.2827 88.2775 66.4413 87.9413 66.5312 87.5483H68.598C68.5223 88.2538 68.2926 88.8835 67.9091 89.4375C67.5256 89.9915 67.0118 90.4271 66.3679 90.7443C65.7287 91.0616 64.9782 91.2202 64.1165 91.2202ZM70.869 91V80.0909H72.9215V81.8239H73.0352C73.234 81.2367 73.5844 80.7751 74.0863 80.4389C74.5929 80.098 75.1658 79.9276 75.805 79.9276C75.9376 79.9276 76.0939 79.9323 76.2738 79.9418C76.4585 79.9512 76.6029 79.9631 76.707 79.9773V82.0085C76.6218 81.9848 76.4703 81.9588 76.2525 81.9304C76.0347 81.8973 75.8169 81.8807 75.5991 81.8807C75.0972 81.8807 74.6497 81.9872 74.2567 82.2003C73.8685 82.4086 73.5607 82.6998 73.3335 83.0739C73.1062 83.4432 72.9925 83.8646 72.9925 84.3381V91H70.869ZM78.5447 91V80.0909H80.6683V91H78.5447ZM79.6172 78.4077C79.2479 78.4077 78.9306 78.2846 78.6655 78.0384C78.4051 77.7874 78.2749 77.4891 78.2749 77.1435C78.2749 76.7931 78.4051 76.4948 78.6655 76.2486C78.9306 75.9976 79.2479 75.8722 79.6172 75.8722C79.9865 75.8722 80.3014 75.9976 80.5618 76.2486C80.8269 76.4948 80.9595 76.7931 80.9595 77.1435C80.9595 77.4891 80.8269 77.7874 80.5618 78.0384C80.3014 78.2846 79.9865 78.4077 79.6172 78.4077ZM83.5252 95.0909V80.0909H85.5991V81.8594H85.7766C85.8997 81.6321 86.0773 81.3693 86.3093 81.071C86.5413 80.7727 86.8633 80.5123 87.2752 80.2898C87.6871 80.0625 88.2317 79.9489 88.9087 79.9489C89.7894 79.9489 90.5754 80.1714 91.2667 80.6165C91.958 81.0616 92.5001 81.7031 92.8931 82.5412C93.2908 83.3793 93.4897 84.3878 93.4897 85.5668C93.4897 86.7457 93.2932 87.7566 92.9002 88.5994C92.5072 89.4375 91.9674 90.0838 91.2809 90.5384C90.5943 90.9882 89.8107 91.2131 88.93 91.2131C88.2672 91.2131 87.725 91.1018 87.3036 90.8793C86.887 90.6567 86.5603 90.3963 86.3235 90.098C86.0868 89.7997 85.9045 89.5346 85.7766 89.3026H85.6488V95.0909H83.5252ZM85.6062 85.5455C85.6062 86.3125 85.7174 86.9848 85.94 87.5625C86.1625 88.1402 86.4845 88.5923 86.9059 88.919C87.3273 89.241 87.8434 89.402 88.4542 89.402C89.0887 89.402 89.619 89.2339 90.0451 88.8977C90.4712 88.5568 90.7932 88.0952 91.011 87.5128C91.2335 86.9304 91.3448 86.2746 91.3448 85.5455C91.3448 84.8258 91.2359 84.1795 91.0181 83.6065C90.805 83.0336 90.4831 82.5814 90.0522 82.25C89.6261 81.9186 89.0934 81.7528 88.4542 81.7528C87.8387 81.7528 87.3178 81.9115 86.8917 82.2287C86.4703 82.5459 86.1507 82.9886 85.9329 83.5568C85.7151 84.125 85.6062 84.7879 85.6062 85.5455ZM100.961 80.0909V81.7955H95.0025V80.0909H100.961ZM96.6005 77.4773H98.7241V87.7969C98.7241 88.2088 98.7856 88.5189 98.9087 88.7273C99.0318 88.9309 99.1905 89.0705 99.3846 89.1463C99.5835 89.2173 99.7989 89.2528 100.031 89.2528C100.201 89.2528 100.35 89.241 100.478 89.2173C100.606 89.1937 100.706 89.1747 100.777 89.1605L101.16 90.9148C101.037 90.9621 100.862 91.0095 100.635 91.0568C100.407 91.1089 100.123 91.1373 99.7823 91.142C99.2236 91.1515 98.7028 91.0521 98.2198 90.8438C97.7369 90.6354 97.3462 90.3134 97.0479 89.8778C96.7496 89.4422 96.6005 88.8954 96.6005 88.2372V77.4773Z" fill="#09EAB4"/>
</svg>
